<?xml version="1.0" encoding="UTF-8" standalone="no"?>
<!-- Created with Inkscape (http://www.inkscape.org/) -->

<svg
   version="1.1"
   id="svg1"
   width="1100"
   height="600"
   viewBox="0 0 1100 600"
   xmlns="http://www.w3.org/2000/svg"
   xmlns:svg="http://www.w3.org/2000/svg">
  <defs
     id="defs1">
    <clipPath
       id="clipPath4840-7-4-2-3-5-4-5">
      <path
         d="M 305.18,243.28 H 432.82 V 121.63 H 305.18 Z"
         id="path1" />
    </clipPath>
    <clipPath
       id="clipPath4844-9-9-1-6-0-8-8">
      <path
         d="m 363.64,243.28 h 69.178 V 171.381 H 363.64 Z"
         id="path2" />
    </clipPath>
    <clipPath
       id="clipPath4848-5-8-0-6-5-2-0">
      <path
         d="m 305.18,226.91 h 50.614 V 171.322 H 305.18 Z"
         id="path3" />
    </clipPath>
    <clipPath
       id="clipPath4852-0-6-9-1-2-5-9">
      <path
         d="m 317.16,171.6 h 38.63 v -27.716 h -38.63 z"
         id="path4" />
    </clipPath>
    <clipPath
       id="clipPath4856-9-6-4-6-8-7-1">
      <path
         d="m 363.64,179.64 h 69.178 V 121.628 H 363.64 Z"
         id="path5" />
    </clipPath>
    <clipPath
       id="clipPath4860-0-0-6-4-4-8-1">
      <path
         d="m 344.67,164.6 h 37.573 V 123.942 H 344.67 Z"
         id="path6" />
    </clipPath>
    <mask
       id="mask4938-5-7-9-1-9-79-2"
       x="0"
       y="0"
       width="1"
       height="1"
       maskUnits="userSpaceOnUse">
      <g
         clip-path="url(#clipPath4922-8-4-2-6-5-7-6)"
         opacity="0.60001"
         id="g9">
        <path
           d="m 350.9,244.07 h 81.909 V 129.43 H 350.9 Z"
           id="path7" />
        <g
           clip-path="url(#clipPath4926-6-1-4-3-8-6-7)"
           id="g8">
          <path
             d="m 394.62,244.07 c -13.536,-5.283 -27.248,-9.199 -40.93,-11.767 -1.816,-6.899 -2.789,-14.141 -2.789,-21.612 0,-12.509 2.716,-24.385 7.587,-35.072 0.408,-0.687 0.816,-1.363 1.223,-2.054 11.681,20.158 23.357,43.66 34.909,70.505 m 38.19,-64.425 c -22.31,-8.252 -45.715,-12.515 -69.178,-12.784 1.105,-1.904 2.212,-3.834 3.317,-5.763 10.886,-15.032 26.589,-26.344 44.847,-31.672 7.089,15.449 14.105,32.186 21.014,50.219 m -34.229,63.636 c 11.598,-17.976 23.05,-37.328 34.229,-58.055 -22.31,-8.607 -45.716,-13.222 -69.178,-13.844 11.707,20.605 23.4,44.573 34.949,71.899"
             fill="url(#radialGradient4936-3-5-6-1-9-60-4)"
             id="path8" />
        </g>
      </g>
    </mask>
    <clipPath
       id="clipPath4922-8-4-2-6-5-7-6">
      <path
         d="m 350.9,244.07 h 81.909 V 129.43 H 350.9 Z"
         id="path9" />
    </clipPath>
    <clipPath
       id="clipPath4926-6-1-4-3-8-6-7">
      <path
         d="m 350.9,244.07 h 81.909 V 129.43 H 350.9 Z"
         id="path10" />
    </clipPath>
    <radialGradient
       id="radialGradient4936-3-5-6-1-9-60-4"
       cx="0"
       cy="0"
       r="1"
       gradientTransform="matrix(68.96,0,0,-68.96,363.32,168.93)"
       gradientUnits="userSpaceOnUse">
      <stop
         stop-color="#fff"
         offset="0"
         id="stop10" />
      <stop
         stop-color="#58585a"
         offset="1"
         id="stop11" />
    </radialGradient>
    <clipPath
       id="clipPath4970-5-5-1-4-2-1-5">
      <path
         d="m 350.9,244.07 h 81.909 V 129.43 H 350.9 Z"
         id="path11" />
    </clipPath>
  </defs>
  <g
     id="g52"
     transform="translate(5871.6855,-695.06435)">
    <g
       transform="matrix(8.5964701,0,0,8.5964701,-6120.7266,-288.65983)"
       id="g196">
      <g
         id="g184">
        <path
           d="m 34.347,145.08 c 3.9448,-3.8407 7.9844,-8.8741 12.077,-15.099 4.0746,6.0522 8.1996,12.59 12.329,19.61 -8.2776,-0.0949 -16.535,-1.5988 -24.406,-4.511"
           fill="#aad2a6"
           id="path179" />
        <path
           d="m 47.822,129.28 c 8.1492,-0.38947 16.48,-2.1759 24.63,-5.3569 -4.0753,9.4703 -8.1943,17.761 -12.315,24.873 -4.1208,-6.9864 -8.2405,-13.492 -12.315,-19.516"
           fill="#cfe09e"
           id="path180" />
        <path
           d="m 72.451,174.74 c -8.1499,-0.39088 -16.481,-2.1763 -24.63,-5.358 4.0749,-4.6277 8.195,-10.435 12.316,-17.422 4.1208,7.1113 8.2398,14.704 12.314,22.78"
           fill="#0e496c"
           id="path181" />
        <path
           d="m 58.753,151.14 c -4.1296,6.8636 -8.2546,12.542 -12.329,17.036 -4.0922,-7.7911 -8.1333,-15.098 -12.077,-21.919 7.8715,3.0378 16.129,4.6644 24.406,4.8838"
           fill="#3b8485"
           id="path182" />
        <path
           d="m 85.924,146.65 c -3.943,10.292 -7.9848,19.391 -12.076,27.298 -4.0735,-8.0793 -8.1986,-15.676 -12.329,-22.788 8.2772,-0.0949 16.534,-1.5988 24.404,-4.5099"
           fill="#7abe9a"
           id="path183" />
        <path
           d="m 73.849,124.21 c 4.0915,6.3415 8.1315,13.168 12.075,20.481 -7.8705,3.0364 -16.128,4.6644 -24.404,4.8839 4.13,-7.269 8.255,-15.724 12.329,-25.364"
           fill="#e7e79e"
           id="path184" />
      </g>
      <g
         transform="matrix(0.35278,0,0,-0.35278,-66.762,210.03)"
         id="g191">
        <g
           clip-path="url(#clipPath4840-7-4-2-3-5-4-5)"
           opacity="0.39999"
           id="g190">
          <g
             clip-path="url(#clipPath4844-9-9-1-6-0-8-8)"
             opacity="0.33"
             id="g185">
            <path
               d="m 363.64,171.38 c 23.462,0.622 46.868,5.237 69.178,13.844 -11.179,20.727 -22.631,40.079 -34.229,58.055 C 387.04,215.953 375.347,191.985 363.64,171.38"
               fill="#ffffff"
               id="path185" />
          </g>
          <g
             clip-path="url(#clipPath4848-5-8-0-6-5-2-0)"
             opacity="0.33"
             id="g186">
            <path
               d="m 314.8,175.92 c 13.505,-2.901 27.235,-4.442 40.987,-4.6 -11.706,19.901 -23.399,38.432 -34.949,55.588 -5.256,-7.995 -10.48,-15.289 -15.665,-21.896 1.716,-10.318 5.007,-20.102 9.627,-29.092"
               fill="#ffffff"
               id="path186" />
          </g>
          <g
             clip-path="url(#clipPath4852-0-6-9-1-2-5-9)"
             opacity="0.33"
             id="g187">
            <path
               d="m 317.16,171.6 c 6.147,-10.633 14.199,-20.026 23.687,-27.716 4.972,7.069 9.957,14.743 14.943,23.031 -12.952,0.344 -25.887,1.909 -38.63,4.685"
               fill="#ffffff"
               id="path187" />
          </g>
          <g
             clip-path="url(#clipPath4856-9-6-4-6-8-7-1)"
             opacity="0.33"
             id="g188">
            <path
               d="m 363.64,166.86 c 8.128,-13.998 16.246,-28.671 24.317,-43.99 5.129,-0.81 10.388,-1.238 15.746,-1.238 1.513,0 3.017,0.038 4.514,0.105 8.31,17.543 16.528,36.838 24.601,57.907 -22.31,-8.252 -45.715,-12.515 -69.178,-12.784"
               fill="#ffffff"
               id="path188" />
          </g>
          <g
             clip-path="url(#clipPath4860-0-0-6-4-4-8-1)"
             opacity="0.33"
             id="g189">
            <path
               d="m 359.71,164.6 c -5.018,-8.507 -10.035,-16.394 -15.042,-23.667 11.021,-8.088 23.763,-13.967 37.573,-16.991 -7.487,14.117 -15.008,27.675 -22.531,40.658"
               fill="#ffffff"
               id="path189" />
          </g>
        </g>
      </g>
      <g
         transform="matrix(0.35278,0,0,-0.35278,-66.762,210.03)"
         id="g195">
        <g
           mask="url(#mask4938-5-7-9-1-9-79-2)"
           id="g194">
          <g
             clip-path="url(#clipPath4970-5-5-1-4-2-1-5)"
             fill="#ffffff"
             opacity="0.60001"
             id="g193">
            <path
               d="m 363.64,171.38 c 23.462,0.622 46.868,5.237 69.178,13.844 -11.179,20.727 -22.631,40.079 -34.229,58.055 C 387.04,215.953 375.347,191.985 363.64,171.38"
               id="path191" />
            <path
               d="m 432.81,179.64 c -22.31,-8.252 -45.715,-12.515 -69.178,-12.784 1.105,-1.904 2.212,-3.834 3.317,-5.763 10.886,-15.032 26.589,-26.344 44.847,-31.672 7.089,15.449 14.105,32.186 21.014,50.219"
               id="path192" />
            <path
               d="m 394.62,244.07 c -13.536,-5.283 -27.248,-9.199 -40.93,-11.767 -1.816,-6.899 -2.789,-14.141 -2.789,-21.612 0,-12.509 2.716,-24.385 7.587,-35.072 0.408,-0.687 0.816,-1.363 1.223,-2.054 11.681,20.158 23.357,43.66 34.909,70.505"
               id="path193" />
          </g>
        </g>
      </g>
    </g>
    <g
       id="g197"
       transform="translate(-7740.8502,-706.64024)">
      <path
         id="path196"
         style="font-size:40px;line-height:0.65;font-family:'Verdana Pro';-inkscape-font-specification:'Verdana Pro';white-space:pre;fill:#0e496c;stroke-width:3.76986"
         d="m 2435.4449,1774.359 h -15.6095 v -14.3578 h 15.6095 z m -0.8835,96.0137 h -13.8425 v -82.2449 h 13.8425 z m 96.1609,0 h -13.8425 v -46.8288 q 0,-14.8733 -3.9024,-19.6592 -3.9024,-4.8596 -13.4743,-4.8596 -10.6028,0 -23.7088,9.9401 v 61.4075 h -13.8425 v -82.2449 h 13.8425 v 9.1302 q 13.7687,-11.4127 27.6112,-11.4127 27.3168,0 27.3168,31.1456 z m 95.4245,0 h -13.8423 v -46.8288 q 0,-14.8733 -3.9024,-19.6592 -3.9025,-4.8596 -13.4744,-4.8596 -10.6027,0 -23.7088,9.9401 v 61.4075 h -13.8425 v -82.2449 h 13.8425 v 9.1302 q 13.7688,-11.4127 27.6112,-11.4127 27.3167,0 27.3167,31.1456 z m 58.8305,2.2825 q -17.3767,0 -27.6849,-11.5599 -10.3082,-11.5599 -10.3082,-31.8082 0,-20.1746 10.2346,-31.8082 10.3082,-11.6336 27.7585,-11.6336 17.2295,0 27.5377,11.7072 10.3818,11.6335 10.3818,31.7346 0,20.101 -10.3081,31.7345 -10.3083,11.6336 -27.6114,11.6336 z m 0,-74.8818 q -23.7088,0 -23.7088,31.5137 0,15.536 6.1849,23.488 6.2585,7.9521 17.5239,7.9521 11.0446,0 17.3031,-7.8784 6.3321,-7.9521 6.3321,-23.5617 0,-31.5137 -23.6352,-31.5137 z m 128.9999,-9.6456 -33.2808,82.2449 h -13.9161 l -33.0598,-82.2449 h 15.0205 l 25.476,65.4572 25.2551,-65.4572 z m 80.9195,82.2449 h -13.7689 v -8.762 q -9.94,7.2893 -16.4931,9.1301 -6.553,1.9144 -13.0325,1.9144 -11.1918,0 -18.9229,-7.363 -7.6576,-7.4366 -7.6576,-18.7756 0,-14.8733 11.1182,-22.0154 11.1918,-7.2158 44.9879,-8.4675 v -2.1353 q 0,-7.8048 -4.8595,-11.6335 -4.8597,-3.9025 -17.2295,-3.9025 -11.2654,0 -25.9914,5.596 h -0.7363 v -14.0634 q 14.9469,-3.7551 26.8014,-3.7551 19.0702,0 27.3904,7.142 8.3938,7.0686 8.3938,21.2792 z m -13.7689,-20.2482 v -22.899 q -27.4639,1.2517 -34.6797,5.7431 -7.1421,4.4915 -7.1421,12.5908 0,14.2106 17.303,14.2106 12.149,0 24.5188,-9.6455 z" />
      <path
         id="path197"
         style="font-size:40px;line-height:0.65;font-family:'Verdana Pro';-inkscape-font-specification:'Verdana Pro';white-space:pre;fill:#0e496c;stroke-width:5.5367"
         d="m 2556.8471,1719.1521 q -33.4148,15.0313 -59.0437,15.0313 -40.0113,0 -62.2879,-21.7359 -22.1685,-21.844 -22.1685,-62.0717 0,-38.7136 22.601,-60.9902 22.6011,-22.2766 61.8554,-22.2766 28.9811,0 58.9356,14.4906 v 25.4126 h -1.9465 q -27.7916,-21.6277 -60.6658,-21.6277 -26.9265,0 -42.7148,17.3022 -15.7883,17.3022 -15.7883,47.0403 0,31.1439 16.329,48.5543 16.3289,17.4104 44.8775,17.4104 20.7627,0 38.8219,-7.3535 v -39.4706 h -43.1474 v -18.8162 h 64.3425 z m 136.9036,-46.3915 h -88.9981 q 0,20.3301 11.3546,31.9009 11.4626,11.4627 31.5764,11.4627 23.5743,0 42.6067,-14.5987 h 1.0814 v 22.1684 q -24.4394,10.1651 -43.4718,10.1651 -30.1707,0 -47.0403,-16.2209 -16.7615,-16.3289 -16.7615,-46.2834 0,-29.7381 16.1126,-47.0403 16.2209,-17.4103 42.6067,-17.4103 24.4394,0 37.6323,14.3825 13.301,14.2742 13.301,40.4438 z m -19.7893,-15.572 q -0.2165,-33.523 -32.2254,-33.523 -16.1126,0 -25.8452,9.5162 -9.7324,9.408 -11.1382,24.0068 z m 97.8655,77.211 q -25.5208,0 -40.6602,-16.9777 -15.1394,-16.9778 -15.1394,-46.716 0,-29.63 15.0313,-46.7159 15.1394,-17.0859 40.7683,-17.0859 25.3044,0 40.4438,17.194 15.2476,17.086 15.2476,46.6078 0,29.5219 -15.1394,46.6078 -15.1394,17.0859 -40.552,17.0859 z m 0,-109.9771 q -34.8207,0 -34.8207,46.2834 0,22.8173 9.0837,34.4963 9.1918,11.679 25.737,11.679 16.2208,0 25.4126,-11.5709 9.2999,-11.679 9.2999,-34.6044 0,-46.2834 -34.7125,-46.2834 z" />
    </g>
  </g>
</svg>
