<?xml version="1.0" encoding="UTF-8"?>
<!DOCTYPE svg PUBLIC "-//W3C//DTD SVG 1.1//EN" "http://www.w3.org/Graphics/SVG/1.1/DTD/svg11.dtd">
<svg width="798pt" height="254pt" viewBox="0 0 798 254" version="1.1" xmlns="http://www.w3.org/2000/svg">
<g id="#38a0c7ff">
<path fill="#38a0c7" opacity="1.00" d=" M 0.00 0.00 L 0.06 0.00 C 0.05 0.02 0.02 0.05 0.00 0.06 L 0.00 0.00 Z"/>
<path fill="#38a0c7" opacity="1.00" d=" M 79.41 69.11 C 106.25 53.44 133.27 38.02 160.18 22.43 C 148.98 41.27 138.20 60.37 127.27 79.37 C 123.86 85.30 119.86 90.94 117.49 97.40 C 116.98 97.85 116.46 98.30 115.95 98.75 L 115.64 99.02 C 108.94 94.57 101.59 91.22 94.51 87.42 C 86.89 82.77 78.63 79.21 71.00 74.60 C 71.03 74.39 71.09 73.97 71.12 73.77 C 73.93 72.30 76.58 70.54 79.41 69.11 Z"/>
<path fill="#38a0c7" opacity="1.00" d=" M 115.95 98.75 C 121.43 100.60 125.88 104.34 130.84 107.17 C 155.91 120.45 181.08 133.53 206.13 146.84 C 207.58 147.65 209.21 148.01 210.83 148.29 L 211.26 148.38 C 211.44 148.83 211.79 149.73 211.96 150.18 C 216.32 151.88 220.28 154.39 224.36 156.64 C 235.58 162.11 246.33 168.47 257.45 174.12 C 229.63 190.46 201.57 206.41 173.73 222.76 C 172.02 223.65 170.27 224.46 168.53 225.30 C 179.82 204.80 191.92 184.77 203.38 164.37 C 205.88 159.75 209.16 155.52 210.80 150.46 C 207.28 151.85 204.02 153.79 200.79 155.75 C 188.91 162.50 177.15 169.48 165.27 176.23 C 164.41 176.67 163.52 177.04 162.58 177.28 C 161.95 173.52 159.01 170.86 157.35 167.57 C 143.60 144.61 129.75 121.67 115.95 98.75 Z"/>
</g>
<g id="#53bbe2ff">
<path fill="#53bbe2" opacity="1.00" d=" M 160.18 22.43 C 166.42 24.79 172.15 28.27 178.18 31.08 C 188.32 35.27 197.77 40.94 207.90 45.18 C 213.38 48.13 219.06 50.68 224.62 53.49 C 235.70 58.38 246.30 64.31 257.45 69.05 C 255.72 70.94 253.11 71.57 251.03 72.95 C 239.13 80.03 227.09 86.91 215.03 93.69 C 198.26 86.21 181.61 78.46 164.94 70.74 C 164.93 71.16 164.91 72.00 164.90 72.43 C 164.60 72.20 164.00 71.74 163.70 71.52 C 151.65 78.59 139.55 85.56 127.43 92.49 C 124.30 94.48 121.01 96.21 117.49 97.40 C 119.86 90.94 123.86 85.30 127.27 79.37 C 138.20 60.37 148.98 41.27 160.18 22.43 Z"/>
<path fill="#53bbe2" opacity="1.00" d=" M 200.79 155.75 C 204.02 153.79 207.28 151.85 210.80 150.46 C 209.16 155.52 205.88 159.75 203.38 164.37 C 191.92 184.77 179.82 204.80 168.53 225.30 C 168.40 225.54 168.13 226.03 167.99 226.28 C 158.29 222.17 149.01 217.15 139.54 212.55 C 131.95 209.74 125.20 205.08 117.58 202.37 C 105.04 195.76 92.10 190.18 79.53 183.66 C 76.54 182.18 73.23 181.27 70.67 179.05 C 80.35 173.65 89.74 167.73 99.54 162.54 C 103.25 159.57 107.92 158.22 111.58 155.19 C 115.81 154.98 118.93 158.39 122.88 159.35 C 133.21 164.35 143.83 168.72 154.17 173.70 C 156.22 174.85 158.66 175.28 160.45 176.89 C 160.98 176.99 162.05 177.19 162.58 177.28 C 163.52 177.04 164.41 176.67 165.27 176.23 C 177.15 169.48 188.91 162.50 200.79 155.75 Z"/>
</g>
<g id="#6ccff6ff">
<path fill="#6ccff6" opacity="1.00" d=" M 127.43 92.49 C 139.55 85.56 151.65 78.59 163.70 71.52 C 164.00 71.74 164.60 72.20 164.90 72.43 L 166.01 73.26 C 169.55 79.86 173.49 86.28 177.58 92.56 C 188.27 111.37 200.00 129.56 210.83 148.29 C 209.21 148.01 207.58 147.65 206.13 146.84 C 181.08 133.53 155.91 120.45 130.84 107.17 C 125.88 104.34 121.43 100.60 115.95 98.75 C 116.46 98.30 116.98 97.85 117.49 97.40 C 121.01 96.21 124.30 94.48 127.43 92.49 Z"/>
</g>
<g id="#313131ff">
<path fill="#313131" opacity="1.00" d=" M 268.51 85.52 C 272.82 83.96 277.39 82.84 282.00 83.03 C 289.68 83.15 297.37 82.93 305.04 83.12 C 310.43 84.00 316.21 85.80 319.52 90.46 C 323.07 95.59 323.15 101.94 322.84 107.92 C 316.47 107.93 310.10 107.93 303.74 107.93 C 303.44 104.72 302.69 100.79 298.97 100.02 C 293.74 99.85 288.47 99.70 283.26 100.12 C 277.93 101.28 277.41 108.82 280.88 112.14 C 283.50 114.07 286.95 113.42 289.99 113.58 C 298.30 114.73 306.92 114.25 314.96 117.14 C 319.97 118.38 323.89 122.89 324.50 128.00 C 325.63 132.25 325.11 136.65 325.24 140.99 C 325.46 147.01 323.49 153.77 318.09 157.10 C 311.24 161.54 302.83 161.60 295.02 162.57 C 287.86 162.82 280.71 162.32 273.66 161.28 C 267.37 159.93 261.43 155.72 259.89 149.18 C 258.22 145.22 259.41 140.76 257.74 136.85 C 264.43 136.88 271.13 136.84 277.82 136.87 C 278.00 139.67 278.54 143.26 281.61 144.33 C 287.98 146.71 295.03 145.79 301.60 144.80 C 302.53 143.91 303.47 143.01 304.40 142.11 C 304.36 139.08 304.34 136.05 304.43 133.02 C 298.90 128.80 291.34 131.48 285.02 129.73 C 277.98 129.75 270.61 128.95 264.46 125.25 C 262.75 123.64 261.54 121.56 260.35 119.56 C 257.93 114.39 258.87 108.54 258.66 103.03 C 258.37 96.05 261.74 88.29 268.51 85.52 Z"/>
<path fill="#313131" opacity="1.00" d=" M 504.08 83.07 C 509.97 83.05 515.86 83.05 521.75 83.07 C 521.74 87.61 521.73 92.15 521.77 96.69 C 515.86 96.72 509.95 96.72 504.05 96.69 C 504.10 92.15 504.09 87.61 504.08 83.07 Z"/>
<path fill="#313131" opacity="1.00" d=" M 540.01 88.01 C 545.02 84.66 551.15 83.66 557.02 83.04 C 565.34 83.10 573.66 82.99 581.98 83.09 C 586.78 83.86 592.20 84.52 595.66 88.35 C 600.99 92.88 601.98 100.52 601.95 107.12 C 595.07 107.13 588.20 107.14 581.32 107.12 C 580.82 103.05 577.32 99.31 573.00 99.90 C 567.72 100.30 562.10 98.92 557.07 100.90 C 552.34 102.90 551.45 108.44 551.37 112.99 C 551.43 120.02 551.33 127.07 551.42 134.10 C 551.66 138.51 553.91 143.49 558.54 144.68 C 564.27 146.06 570.59 146.50 576.14 144.17 C 580.63 142.17 581.19 136.37 581.12 132.06 C 576.30 132.05 571.48 132.06 566.66 132.05 C 566.65 127.23 566.67 122.41 566.64 117.60 C 578.42 117.59 590.20 117.55 601.99 117.62 C 601.53 127.85 602.99 138.28 600.15 148.27 C 598.95 153.00 595.84 157.58 591.06 159.18 C 585.41 162.01 579.01 161.51 572.96 162.54 C 567.64 162.54 562.28 162.90 557.03 161.86 C 549.48 161.73 541.33 159.59 535.98 153.99 C 532.33 149.21 530.22 143.12 530.53 137.07 C 530.60 126.71 530.53 116.35 530.56 105.99 C 531.08 99.10 534.12 91.95 540.01 88.01 Z"/>
<path fill="#313131" opacity="1.00" d=" M 613.14 83.07 C 619.82 83.05 626.50 83.06 633.19 83.06 C 633.20 109.30 633.19 135.53 633.19 161.77 C 626.50 161.76 619.81 161.78 613.12 161.75 C 613.17 135.52 613.14 109.29 613.14 83.07 Z"/>
<path fill="#313131" opacity="1.00" d=" M 650.15 88.09 C 654.38 84.87 659.76 83.58 664.96 83.05 C 672.98 83.05 680.99 83.07 689.01 83.04 C 694.69 83.40 700.91 84.71 704.72 89.32 C 708.93 94.50 709.10 101.56 709.42 107.91 C 702.74 107.93 696.06 107.94 689.39 107.91 C 689.90 104.62 688.20 101.89 685.76 99.88 C 681.16 99.97 676.56 99.83 671.96 99.91 C 669.59 99.92 666.98 100.51 665.47 102.49 C 665.03 105.58 664.88 108.89 666.13 111.83 C 670.41 114.21 675.29 113.05 679.86 114.13 C 687.64 114.60 695.74 114.78 703.05 117.86 C 708.64 119.90 711.06 126.36 711.00 131.90 C 710.67 139.29 712.34 147.40 707.83 153.90 C 704.40 158.03 698.96 159.66 693.95 160.96 C 682.67 163.04 671.05 163.13 659.75 161.25 C 655.91 160.21 651.77 159.01 649.25 155.70 C 645.10 150.42 643.99 143.42 644.42 136.87 C 650.79 136.84 657.16 136.87 663.53 136.86 C 664.30 139.54 664.40 143.44 667.57 144.42 C 674.01 146.66 681.05 145.82 687.65 144.72 C 691.18 141.78 692.05 136.35 689.45 132.53 C 688.54 130.90 686.41 131.39 684.90 130.95 C 680.35 129.87 675.61 131.01 671.07 129.77 C 664.79 129.73 658.33 129.17 652.57 126.42 C 648.23 123.80 645.23 119.27 644.85 114.17 C 643.84 105.35 643.44 94.94 650.15 88.09 Z"/>
<path fill="#313131" opacity="1.00" d=" M 347.57 107.30 C 351.63 106.23 355.80 106.17 359.98 106.31 C 364.92 106.01 369.87 106.83 374.56 108.37 C 380.46 110.12 384.03 116.11 385.09 121.88 C 385.40 126.89 386.63 131.81 386.16 136.86 C 374.12 136.86 362.08 136.85 350.04 136.87 C 349.83 139.96 350.60 142.98 350.99 146.03 C 352.07 147.28 353.22 148.48 354.43 149.63 C 358.31 150.40 362.35 150.57 366.11 149.14 C 367.98 148.15 368.46 146.00 368.78 144.09 C 374.61 144.09 380.45 144.09 386.29 144.09 C 385.57 149.79 384.31 156.89 378.28 159.29 C 367.45 163.49 355.05 163.63 344.02 160.11 C 338.51 158.55 335.16 153.42 333.95 148.08 C 331.55 136.99 331.59 125.02 335.98 114.44 C 338.96 110.82 342.84 107.99 347.57 107.30 M 355.60 118.61 C 351.35 119.39 349.72 124.22 350.06 128.04 C 356.25 128.05 362.44 128.05 368.63 128.03 C 368.59 125.44 368.49 122.49 366.47 120.58 C 363.67 117.67 359.23 118.14 355.60 118.61 Z"/>
<path fill="#313131" opacity="1.00" d=" M 418.61 108.59 C 424.09 105.16 432.35 105.10 436.91 110.09 C 441.33 115.86 440.77 123.55 440.79 130.41 C 435.41 130.42 430.03 130.44 424.66 130.39 C 424.27 127.31 425.99 123.15 423.09 120.93 C 420.50 118.91 416.91 120.02 414.43 121.68 C 412.01 127.50 412.77 133.88 412.68 140.01 C 412.68 147.25 412.65 154.50 412.70 161.75 C 406.79 161.78 400.88 161.78 394.98 161.74 C 395.07 143.55 395.09 125.35 394.97 107.16 C 400.87 107.11 406.78 107.13 412.69 107.14 C 412.66 109.96 412.63 112.79 412.75 115.61 C 414.57 113.17 415.63 109.92 418.61 108.59 Z"/>
<path fill="#313131" opacity="1.00" d=" M 443.76 107.13 C 449.92 107.13 456.08 107.13 462.24 107.13 C 464.76 120.11 468.44 132.87 470.94 145.86 C 471.26 147.31 471.89 148.67 472.46 150.04 C 472.73 149.68 473.26 148.95 473.53 148.59 C 474.32 140.26 477.10 132.31 478.31 124.06 C 479.06 118.33 481.22 112.90 481.76 107.14 C 487.90 107.10 494.04 107.18 500.18 107.09 C 495.83 123.62 492.23 140.36 487.80 156.87 C 487.39 158.26 487.24 159.71 487.14 161.15 C 484.53 162.12 481.72 161.72 479.01 161.77 C 472.18 161.76 465.34 161.76 458.51 161.78 C 455.42 148.22 451.06 135.00 447.76 121.49 C 446.01 116.82 445.34 111.85 443.76 107.13 Z"/>
<path fill="#313131" opacity="1.00" d=" M 504.07 107.14 C 509.97 107.13 515.86 107.12 521.76 107.15 C 521.74 125.35 521.72 143.55 521.77 161.75 C 515.87 161.78 509.96 161.78 504.06 161.75 C 504.11 143.55 504.09 125.35 504.07 107.14 Z"/>
</g>
</svg>