<?xml version="1.0" encoding="UTF-8" standalone="no"?>
<!-- Generator: Adobe Illustrator 16.0.0, SVG Export Plug-In . SVG Version: 6.00 Build 0)  -->

<svg
   xmlns:dc="http://purl.org/dc/elements/1.1/"
   xmlns:cc="http://creativecommons.org/ns#"
   xmlns:rdf="http://www.w3.org/1999/02/22-rdf-syntax-ns#"
   xmlns:svg="http://www.w3.org/2000/svg"
   xmlns="http://www.w3.org/2000/svg"
   xmlns:sodipodi="http://sodipodi.sourceforge.net/DTD/sodipodi-0.dtd"
   xmlns:inkscape="http://www.inkscape.org/namespaces/inkscape"
   version="1.1"
   id="Layer_1"
   x="0px"
   y="0px"
   width="722.569px"
   height="346.291px"
   viewBox="0 0 722.569 346.291"
   enable-background="new 0 0 722.569 346.291"
   xml:space="preserve"
   sodipodi:docname="qgises-logo-monochrome.svg"
   inkscape:version="0.92.3 (2405546, 2018-03-11)"><metadata
   id="metadata834"><rdf:RDF><cc:Work
       rdf:about=""><dc:format>image/svg+xml</dc:format><dc:type
         rdf:resource="http://purl.org/dc/dcmitype/StillImage" /><dc:title></dc:title></cc:Work></rdf:RDF></metadata><defs
   id="defs832" /><sodipodi:namedview
   pagecolor="#ffffff"
   bordercolor="#666666"
   borderopacity="1"
   objecttolerance="10"
   gridtolerance="10"
   guidetolerance="10"
   inkscape:pageopacity="0"
   inkscape:pageshadow="2"
   inkscape:window-width="1920"
   inkscape:window-height="1015"
   id="namedview830"
   showgrid="false"
   inkscape:measure-start="0,0"
   inkscape:measure-end="0,0"
   inkscape:pagecheckerboard="true"
   inkscape:zoom="1.60725"
   inkscape:cx="471.66998"
   inkscape:cy="234.54772"
   inkscape:window-x="0"
   inkscape:window-y="0"
   inkscape:window-maximized="1"
   inkscape:current-layer="Layer_1" />
<g
   id="g827"
   style="fill:#ffffff;fill-opacity:1">
	<polygon
   points="216.513,180 198.306,162 176,162 176,183.433 195,202.37 195,180 "
   id="polygon815"
   style="fill:#ffffff;fill-opacity:1" />
	<path
   d="m 414.246,171.135 v 54.35 c -14.951,10.911 -37.782,18.386 -57.38,18.386 -42.833,0 -75.362,-31.113 -75.362,-72.129 0,-40.813 33.135,-71.725 77.182,-71.725 21.013,0 42.427,8.082 56.773,20.608 l -17.982,22.832 c -10.507,-9.698 -25.052,-15.76 -38.791,-15.76 -25.055,0 -44.451,19.194 -44.451,44.045 0,25.053 19.599,44.249 44.651,44.249 8.486,0 18.589,-3.031 27.681,-7.678 v -37.177 h 27.679 z"
   id="path817"
   inkscape:connector-curvature="0"
   style="fill:#ffffff;fill-opacity:1" />
	<path
   d="m 442.129,242.456 v -141.43 h 31.922 v 141.43 z"
   id="path819"
   inkscape:connector-curvature="0"
   style="fill:#ffffff;fill-opacity:1" />
	<path
   d="m 610.831,114.967 -12.324,26.467 c -14.951,-8.89 -32.731,-14.547 -44.045,-14.547 -10.708,0 -17.981,3.839 -17.981,11.517 0,26.064 75.362,11.517 75.16,62.431 0,27.68 -24.045,42.631 -55.36,42.631 -23.236,0 -46.471,-8.89 -62.431,-22.427 l 12.728,-26.063 c 14.548,12.932 35.155,21.215 50.106,21.215 13.134,0 21.013,-4.849 21.013,-13.537 0,-26.669 -75.362,-11.112 -75.362,-61.219 0,-25.659 22.023,-41.823 54.755,-41.823 19.8,-10e-4 39.599,6.061 53.741,15.355 z"
   id="path821"
   inkscape:connector-curvature="0"
   style="fill:#ffffff;fill-opacity:1" />
	<path
   style="fill:#ffffff;fill-opacity:1"
   d="m 204,189 v 22.33984 L 240.78125,248 H 264 V 226.94531 L 225.61719,189 Z m 23.85156,9.30469 11.14844,10.96093 -2.69336,2.74024 -7.84375,-7.71094 -3.12695,3.17774 7.07031,6.95117 -2.69336,2.74023 -7.07031,-6.95117 -3.1875,3.24219 8.07226,7.93945 -2.69336,2.74024 -11.3789,-11.18946 z m 13.57227,15.93945 c 1.91637,0.0433 3.99247,1.04193 5.89844,2.91602 2.04976,2.01548 3.48192,4.65878 4,7.06054 l -3.97071,1.48633 c -0.64287,-2.4422 -1.90683,-4.83853 -3.07812,-5.99023 -1.10855,-1.09001 -2.25169,-1.43348 -3.03321,-0.63868 -2.65303,2.69817 6.62937,8.86498 1.42579,14.11524 -2.81757,2.86549 -6.82834,1.9651 -10.07032,-1.22266 -2.40533,-2.3651 -3.90721,-5.64968 -4.18164,-8.67578 l 3.97071,-1.4043 c 0.18971,2.81939 1.48151,5.77498 3.02929,7.29688 1.35954,1.3368 2.66839,1.63767 3.55274,0.73828 2.71473,-2.76091 -6.67072,-8.8226 -1.57032,-14.00976 1.14271,-1.16215 2.53684,-1.70557 4.02735,-1.67188 z"
   id="polygon823"
   inkscape:connector-curvature="0" />
	<path
   d="m 198.052,216.864 c -3.259,0.75 -6.648,1.157 -10.144,1.157 -25.005,0 -46.271,-20.562 -46.271,-47.222 0,-26.66 21.032,-46.769 46.271,-46.769 25.239,0 45.336,20.108 45.336,46.769 0,4.336 -0.54,8.508 -1.539,12.46 l 23.144,23.14 c 5.967,-10.455 9.305,-22.611 9.305,-35.778 0,-41.09 -32.791,-71.856 -76.714,-71.856 -43.722,0 -76.512,30.564 -76.512,71.856 0,41.494 32.791,72.666 76.512,72.666 11.287,0 21.835,-2.076 31.284,-5.854 z"
   id="path825"
   inkscape:connector-curvature="0"
   style="fill:#ffffff;fill-opacity:1" />
</g>
</svg>