<?xml version="1.0" encoding="UTF-8" standalone="no"?>
<!-- Created with Inkscape (http://www.inkscape.org/) -->

<svg xmlns:dc="http://purl.org/dc/elements/1.1/" xmlns:cc="http://creativecommons.org/ns#" xmlns:rdf="http://www.w3.org/1999/02/22-rdf-syntax-ns#" xmlns:svg="http://www.w3.org/2000/svg" xmlns="http://www.w3.org/2000/svg" xmlns:sodipodi="http://sodipodi.sourceforge.net/DTD/sodipodi-0.dtd" xmlns:inkscape="http://www.inkscape.org/namespaces/inkscape" id="svg3761" version="1.1" inkscape:version="0.48.4 r9939" width="354.33125" height="354.33125" xml:space="preserve" sodipodi:docname="logo_PSIG_horitzontal_v4.svg" inkscape:export-filename="E:\ZManager\PSIG\Marca\Versio_4\logo_PSIG_horitzontal_v4_transparent.png" inkscape:export-xdpi="300" inkscape:export-ydpi="300"><metadata id="metadata3767"><rdf:RDF><cc:Work rdf:about=""><dc:format>image/svg+xml</dc:format><dc:type rdf:resource="http://purl.org/dc/dcmitype/StillImage" /><dc:title></dc:title></cc:Work></rdf:RDF></metadata><defs id="defs3765"><clipPath clipPathUnits="userSpaceOnUse" id="clipPath3775"><path d="m 0,0 283.465,0 0,283.465 L 0,283.465 0,0 z" id="path3777" /></clipPath><clipPath clipPathUnits="userSpaceOnUse" id="clipPath3789"><path d="m 0,0 283.465,0 0,283.465 L 0,283.465 0,0 z" id="path3791" /></clipPath></defs><sodipodi:namedview pagecolor="#ffffff" bordercolor="#666666" borderopacity="1" objecttolerance="10" gridtolerance="10" guidetolerance="10" inkscape:pageopacity="0" inkscape:pageshadow="2" inkscape:window-width="1920" inkscape:window-height="1018" id="namedview3763" showgrid="false" inkscape:zoom="4.7" inkscape:cx="179.66213" inkscape:cy="154.36947" inkscape:window-x="-8" inkscape:window-y="-8" inkscape:window-maximized="1" inkscape:current-layer="g3769" /><g id="g3769" inkscape:groupmode="layer" inkscape:label="Marques traçades PSIG" transform="matrix(1.25,0,0,-1.25,0,354.33125)"><g id="g4482"><g inkscape:export-ydpi="200" inkscape:export-xdpi="200" inkscape:export-filename="E:\ZManager\PSIG\Marca\Versio_4\logo_PSIG_horitzontal_v4_transparent.png" id="g3771"><g clip-path="url(#clipPath3775)" id="g3773"><g transform="translate(120.3145,139.355)" id="g3779"><path id="path3781" style="fill:#57525a;fill-opacity:1;fill-rule:nonzero;stroke:none" d="m 0,0 0,-8.889 1.947,0 c 1.314,0 2.026,0.602 2.026,2.476 l 0,3.936 C 3.973,-0.602 3.261,0 1.947,0 L 0,0 z m 8.099,-2.739 0,-3.412 c 0,-4.202 -2.023,-6.492 -6.152,-6.492 l -1.947,0 0,-9.862 -4.129,0 0,26.256 6.076,0 c 4.129,0 6.152,-2.287 6.152,-6.49" /></g></g></g><path inkscape:export-ydpi="200" inkscape:export-xdpi="200" inkscape:export-filename="E:\ZManager\PSIG\Marca\Versio_4\logo_PSIG_horitzontal_v4_transparent.png" id="path3783" style="fill:#57525a;fill-opacity:1;fill-rule:nonzero;stroke:none" d="m 144.357,143.106 4.126,0 0,-26.256 -4.126,0 0,26.256 z" /><g transform="translate(157.6695,131.479)" id="g3793"><path inkscape:connector-curvature="0" id="path3795" style="fill:#57525a;fill-opacity:1;fill-rule:nonzero;stroke:none" d="m 0,0 5.779,0 0,-8.327 c 0,-4.199 -2.101,-6.601 -6.15,-6.601 -4.051,0 -6.152,2.402 -6.152,6.601 l 0,13.652 c 0,4.201 2.101,6.599 6.152,6.599 4.049,0 6.15,-2.398 6.15,-6.599 l 0,-2.55 -3.902,0 0,2.813 c 0,1.877 -0.821,2.588 -2.137,2.588 -1.314,0 -2.135,-0.711 -2.135,-2.588 l 0,-14.177 c 0,-1.878 0.821,-2.551 2.135,-2.551 1.316,0 2.137,0.673 2.137,2.551 l 0,4.839 L 0,-3.75 0,0 z" /></g><g transform="translate(135.8814,143.4029)" id="g3797"><path inkscape:connector-curvature="0" id="path3799" style="fill:#57525a;fill-opacity:1;fill-rule:nonzero;stroke:none" d="m 0,0 c 4.01,0 6.074,-2.397 6.074,-6.598 l 0,-0.827 -3.9,0 0,1.089 c 0,1.876 -0.75,2.588 -2.064,2.588 -1.313,0 -2.065,-0.712 -2.065,-2.588 0,-5.402 8.067,-6.413 8.067,-13.915 0,-4.199 -2.102,-6.6 -6.153,-6.6 -4.049,0 -6.148,2.401 -6.148,6.6 l 0,1.615 3.899,0 0,-1.877 c 0,-1.877 0.824,-2.55 2.139,-2.55 1.312,0 2.136,0.673 2.136,2.55 0,5.4 -8.063,6.413 -8.063,13.915 C -6.078,-2.397 -4.012,0 0,0" /></g></g><g id="g3805" transform="translate(104.3023,142.8947)"><path d="m 0,0 c 0,-14.001 -11.352,-25.352 -25.354,-25.352 -14.003,0 -25.357,11.351 -25.357,25.352 0,14.003 11.354,25.356 25.357,25.356 C -11.352,25.356 0,14.003 0,0" style="fill:#fff200;fill-opacity:1;fill-rule:nonzero;stroke:none" id="path3807" inkscape:connector-curvature="0" /></g><g id="g4476"><g transform="translate(55.0904,106.8531)" id="g3801"><path inkscape:connector-curvature="0" id="path3803" style="fill:#3bb964;fill-opacity:1;fill-rule:nonzero;stroke:none" d="M 0,0 C 0.143,0.063 0.28,0.127 0.418,0.189 2.256,2.251 4.377,3.276 6.273,3.765 6.388,3.857 6.512,3.947 6.628,4.044 4.507,3.573 2.06,2.463 0,0 m -2.374,-0.914 c 0.09,0.032 0.185,0.064 0.277,0.096 3.032,5.151 7.55,6.26 10.446,6.387 C 8.414,5.638 8.489,5.705 8.558,5.77 5.598,5.69 0.781,4.613 -2.374,-0.914 M -5.31,1.897 c 0.408,0.541 0.529,0.825 0.707,1.251 0.065,0.15 0.135,0.321 0.228,0.523 0.329,0.711 0.908,0.928 1.584,1.178 0.225,0.085 0.462,0.174 0.692,0.288 C -1.611,5.368 0.09,6.157 1.68,6.559 3.626,7.048 5.639,7.524 7.002,7.526 8.036,7.548 8.987,7.419 9.901,7.15 9.945,7.202 9.993,7.257 10.039,7.308 9.148,7.588 8.222,7.725 7.232,7.725 7.156,7.725 7.079,7.722 7.002,7.722 5.616,7.718 3.588,7.239 1.63,6.748 0.022,6.345 -1.697,5.547 -2.18,5.309 -2.408,5.204 -2.638,5.114 -2.865,5.035 -3.546,4.778 -4.188,4.538 -4.554,3.753 -4.646,3.548 -4.717,3.377 -4.781,3.224 -4.957,2.809 -5.071,2.534 -5.462,2.017 -6.206,1.123 -7.306,-0.2 -6.128,-1.901 c 0.07,0.014 0.141,0.025 0.215,0.039 -1.172,1.616 -0.154,2.843 0.603,3.759 m 0.778,-3.445 c 0.077,0.022 0.16,0.036 0.239,0.058 3.191,7.102 8.883,8.174 12.01,8.174 0.642,0 1.196,-0.043 1.652,-0.099 0.055,0.06 0.112,0.114 0.165,0.172 C 9.046,6.824 8.437,6.879 7.717,6.879 4.52,6.879 -1.309,5.781 -4.532,-1.548" /></g><g transform="translate(24.9234,124.8911)" id="g3809"><path inkscape:connector-curvature="0" id="path3811" style="fill:#3bb964;fill-opacity:1;fill-rule:nonzero;stroke:none" d="m 0,0 c 2.47,1.369 5.271,2.922 12.819,3.367 0.374,0.02 0.769,0.079 1.245,0.176 2.729,0.556 4.687,2.493 5.664,5.607 1.386,4.443 2.227,5.021 3.751,6.069 0.744,0.51 1.664,1.144 2.88,2.405 0.226,0.23 0.377,0.424 0.5,0.625 0.747,1.237 1.124,3.251 1.52,5.388 0.327,1.751 0.665,3.562 1.236,5.196 0.183,0.57 0.849,2.77 1.227,5.422 -0.066,0.033 -0.13,0.057 -0.188,0.087 -0.37,-2.66 -1.043,-4.878 -1.223,-5.448 C 28.854,27.251 28.513,25.431 28.186,23.671 27.793,21.557 27.418,19.558 26.688,18.347 26.575,18.161 26.433,17.982 26.22,17.759 25.016,16.517 24.101,15.885 23.365,15.381 21.856,14.342 20.948,13.716 19.537,9.209 18.586,6.168 16.682,4.273 14.02,3.736 13.56,3.637 13.172,3.586 12.81,3.561 5.215,3.116 2.393,1.552 -0.096,0.174 c -1.269,-0.707 -2.468,-1.373 -4.17,-1.75 -1.26,-0.284 -2.519,-0.496 -3.762,-0.645 0.025,-0.06 0.048,-0.125 0.073,-0.187 1.238,0.147 2.482,0.359 3.733,0.638 1.729,0.389 2.94,1.061 4.222,1.77 m 2.446,2.82 c 2.496,0.994 4.851,1.938 8.878,2.649 0.343,0.062 0.673,0.163 0.989,0.261 l 0.157,0.047 c 3.461,1.026 4.255,4.189 4.637,5.708 l 0.048,0.199 c 1.049,4.097 1.447,4.375 6.292,7.751 l 0.043,0.029 c 0.198,0.138 0.385,0.291 0.579,0.45 1.228,0.965 3.624,5.501 4.743,8.995 0.189,0.644 0.767,3.088 1.064,5.786 -0.06,0.027 -0.124,0.051 -0.188,0.076 -0.293,-2.702 -0.876,-5.162 -1.061,-5.803 -1.186,-3.704 -3.606,-8.057 -4.694,-8.909 -0.177,-0.15 -0.361,-0.302 -0.553,-0.434 L 23.335,19.593 C 18.533,16.252 18.032,15.898 16.968,11.732 L 16.915,11.53 C 16.542,10.046 15.771,6.96 12.414,5.967 L 12.259,5.916 C 11.944,5.82 11.621,5.723 11.289,5.664 7.244,4.945 4.878,4 2.374,3.002 0.308,2.176 -1.828,1.324 -5.016,0.588 -6.309,0.293 -7.56,0.074 -8.787,-0.078 c 0.02,-0.065 0.037,-0.127 0.055,-0.192 1.227,0.155 2.473,0.374 3.758,0.666 3.207,0.741 5.348,1.593 7.42,2.424 m 6.6,4.426 c 0.607,0.257 1.207,0.51 1.837,0.768 2.953,1.233 3.389,4.124 3.65,5.851 l 0.05,0.354 c 0.267,1.677 1.256,4.269 6.713,7.386 0.233,0.156 5.683,3.818 6.715,7.379 0.012,0.045 0.593,2.896 0.887,6.103 -0.068,0.026 -0.133,0.055 -0.203,0.079 -0.289,-3.207 -0.863,-6.081 -0.875,-6.129 -1.011,-3.491 -6.574,-7.229 -6.624,-7.264 -5.532,-3.158 -6.535,-5.806 -6.805,-7.525 L 14.337,13.896 C 14.08,12.207 13.659,9.387 10.808,8.193 10.176,7.94 9.575,7.686 8.971,7.426 5.812,6.085 2.543,4.697 -5.768,2.754 -7.007,2.467 -8.199,2.246 -9.357,2.094 -9.343,2.027 -9.327,1.966 -9.314,1.9 -8.154,2.055 -6.965,2.275 -5.72,2.564 2.605,4.509 5.882,5.9 9.046,7.246 M 8.205,8.664 c 2.811,1.373 3.6,3.947 4.177,5.837 0.051,0.177 0.102,0.353 0.156,0.528 0.635,2.163 1.236,4.208 6.099,6.745 0.564,0.293 5.066,3.056 7.223,5.839 1.25,1.57 1.825,3.156 1.972,5.472 0.06,0.837 0.093,1.616 0.107,2.347 -0.066,0.025 -0.131,0.046 -0.195,0.068 C 27.73,34.752 27.696,33.955 27.638,33.097 27.493,30.825 26.931,29.271 25.705,27.734 23.569,24.978 19.11,22.24 18.546,21.949 13.609,19.373 12.996,17.29 12.352,15.084 12.299,14.909 12.246,14.732 12.189,14.543 11.622,12.703 10.852,10.176 8.117,8.841 4.502,7.055 0.789,5.402 -8.088,3.24 -8.578,3.124 -9.055,3.021 -9.532,2.93 -9.521,2.866 -9.51,2.803 -9.499,2.736 -9.018,2.828 -8.533,2.93 -8.04,3.051 0.853,5.217 4.577,6.873 8.205,8.664 m 1.971,6.127 0.081,0.21 c 1.217,3.021 1.945,4.848 5.73,6.95 0.255,0.14 0.564,0.308 0.923,0.502 1.608,0.87 4.3,2.328 6.972,4.147 0.627,0.439 2.431,2.241 2.482,4.684 0.019,0.85 0.117,1.739 0.214,2.601 0.068,0.637 0.135,1.282 0.178,1.926 -0.067,0.02 -0.13,0.037 -0.197,0.06 C 26.521,35.21 26.451,34.553 26.382,33.904 26.287,33.041 26.187,32.146 26.169,31.288 26.121,28.925 24.376,27.187 23.77,26.764 21.108,24.948 18.421,23.495 16.816,22.626 16.458,22.434 16.144,22.267 15.89,22.122 12.047,19.986 11.306,18.137 10.077,15.074 L 9.993,14.865 C 9.031,12.468 7.539,10.709 5.423,9.486 1.942,7.447 -2.478,5.818 -9.708,3.914 -9.697,3.85 -9.681,3.787 -9.675,3.721 c 7.258,1.91 11.697,3.547 15.201,5.597 2.149,1.246 3.673,3.036 4.65,5.473 m -2.459,0.26 c 1.911,4.355 3.741,6.282 12.166,10.635 0.078,0.04 0.221,0.1 0.414,0.178 1.242,0.498 4.152,1.663 4.225,3.716 0.041,1.184 0.25,2.644 0.45,4.053 0.139,0.96 0.268,1.852 0.328,2.569 -0.063,0.016 -0.129,0.032 -0.194,0.047 -0.06,-0.731 -0.19,-1.645 -0.325,-2.588 -0.204,-1.415 -0.413,-2.88 -0.458,-4.075 -0.065,-1.927 -2.995,-3.098 -4.096,-3.54 -0.203,-0.08 -0.353,-0.142 -0.434,-0.185 C 11.31,21.477 9.472,19.534 7.535,15.129 5.492,10.456 -0.655,7.953 -9.911,5.506 -9.903,5.44 -9.895,5.373 -9.889,5.309 -0.56,7.773 5.637,10.298 7.717,15.051 M 23.929,35.817 C 24.337,34.932 23.826,33.476 23.33,32.065 23.015,31.153 22.683,30.21 22.604,29.424 22.476,28.09 19.994,27.136 18.352,26.504 17.8,26.296 17.328,26.109 17.056,25.955 9.792,21.874 7.43,18.088 6.181,15.244 4.568,11.541 -0.115,8.986 -9.476,6.717 -9.64,6.676 -9.82,6.645 -9.995,6.607 -9.993,6.544 -9.984,6.48 -9.979,6.413 c 0.185,0.038 0.375,0.069 0.548,0.113 9.428,2.287 14.151,4.872 15.793,8.635 1.237,2.818 3.579,6.57 10.793,10.626 0.258,0.147 0.726,0.326 1.268,0.533 1.684,0.653 4.234,1.63 4.377,3.087 0.077,0.763 0.4,1.692 0.718,2.593 0.506,1.447 1.029,2.941 0.586,3.901 -0.084,0.187 -0.156,0.39 -0.221,0.599 -0.07,0.018 -0.143,0.03 -0.214,0.042 0.071,-0.254 0.154,-0.498 0.26,-0.725 M 5.005,15.275 c 0.788,1.742 4.034,7.025 9.527,10.541 0.568,0.36 1.542,0.735 2.573,1.126 1.825,0.702 3.715,1.421 3.937,2.292 0.109,0.439 0.457,0.946 0.823,1.486 0.756,1.094 1.608,2.339 0.956,3.613 -0.456,0.891 -0.575,1.681 -0.684,2.443 -0.069,0.01 -0.135,0.023 -0.205,0.026 0.003,-0.009 0.004,-0.019 0.006,-0.03 0.116,-0.787 0.231,-1.597 0.708,-2.524 0.6,-1.174 -0.218,-2.366 -0.94,-3.418 -0.38,-0.556 -0.738,-1.076 -0.857,-1.545 C 20.653,28.512 18.73,27.775 17.035,27.129 15.994,26.732 15.008,26.354 14.426,25.98 8.895,22.441 5.622,17.11 4.828,15.357 3.335,12.059 -0.999,9.68 -8.424,8.086 -8.892,7.983 -9.431,7.906 -10.042,7.857 c 0.003,-0.068 0.003,-0.13 0.009,-0.199 0.62,0.053 1.17,0.131 1.651,0.235 7.49,1.609 11.867,4.021 13.387,7.382 m 15.889,21.628 c -0.065,0.003 -0.13,0.011 -0.197,0.014 -0.004,-0.386 -0.038,-0.709 -0.067,-1.002 -0.093,-0.869 -0.166,-1.551 0.609,-3.029 0.756,-1.437 -0.405,-2.297 -1.336,-2.992 C 19.541,29.628 19.234,29.395 19.064,29.16 18.876,28.893 17.725,28.466 16.51,28.014 14.951,27.439 13.012,26.719 11.905,25.928 8.194,23.254 4.036,16.623 3.471,15.471 2.003,12.489 -1.745,10.407 -7.371,9.455 -7.884,9.369 -8.76,9.322 -10.031,9.314 c 0,-0.066 -0.004,-0.13 -0.004,-0.197 1.283,0.01 2.171,0.057 2.692,0.145 5.694,0.963 9.494,3.078 10.99,6.125 0.564,1.141 4.692,7.731 8.374,10.379 1.082,0.778 3.009,1.494 4.557,2.064 1.353,0.502 2.422,0.899 2.649,1.219 0.148,0.209 0.448,0.432 0.79,0.686 0.943,0.7 2.231,1.657 1.398,3.242 -0.75,1.426 -0.683,2.051 -0.59,2.914 0.03,0.298 0.064,0.624 0.069,1.012 m -1.671,-0.667 c 0.103,0.241 0.177,0.491 0.239,0.746 -0.067,0 -0.134,10e-4 -0.201,0.005 -0.055,-0.23 -0.128,-0.458 -0.217,-0.675 -0.233,-0.557 -0.476,-0.9 -0.666,-1.172 -0.477,-0.682 -0.656,-0.937 0.284,-2.683 0.48,-0.897 0.64,-1.516 0.5,-1.943 -0.139,-0.437 -0.595,-0.66 -1.122,-0.919 l -0.242,-0.12 C 17.714,29.432 17.39,29.333 16.945,29.194 15.251,28.669 11.282,27.436 9.378,25.871 7.007,23.918 2.316,15.935 2.118,15.602 0.751,13.55 -1.57,10.826 -5.929,10.826 c -0.121,0 -0.249,0.002 -0.383,0.006 -0.033,-0.002 -1.484,-0.066 -3.639,-0.154 -0.003,-0.067 -0.007,-0.133 -0.01,-0.199 2.162,0.091 3.618,0.155 3.649,0.156 0.131,-0.002 0.246,0.006 0.383,-0.008 4.454,0 6.818,2.775 8.216,4.868 0.046,0.085 4.87,8.293 7.215,10.225 1.876,1.54 5.817,2.764 7.502,3.284 0.488,0.153 0.781,0.245 0.88,0.295 l 0.246,0.119 c 0.563,0.277 1.056,0.518 1.221,1.036 0.155,0.482 -0.01,1.15 -0.518,2.094 -0.88,1.641 -0.734,1.852 -0.294,2.478 0.2,0.281 0.444,0.632 0.684,1.21 m -3.76,-0.106 c 0.074,0.254 0.114,0.489 0.125,0.706 -0.063,-0.007 -0.129,-0.02 -0.196,-0.022 -0.015,-0.197 -0.056,-0.405 -0.12,-0.637 -0.116,-0.553 -0.323,-0.924 -0.504,-1.251 -0.401,-0.723 -0.691,-1.244 0.238,-2.92 0.443,-0.805 0.577,-1.419 0.398,-1.882 -0.261,-0.666 -1.155,-0.973 -2.11,-1.295 L 12.96,28.713 C 11.003,27.973 8.393,26.379 6.318,24.657 4.576,23.213 2.16,19.633 0.714,17.497 c -0.479,-0.712 -0.859,-1.272 -1.05,-1.509 -1.507,-1.884 -3.325,-3.627 -6.389,-3.627 -0.344,0 -0.704,0.025 -1.068,0.069 -0.165,0.019 -0.876,0.029 -1.953,0.038 -0.014,-0.067 -0.016,-0.138 -0.024,-0.2 1.064,-0.004 1.797,-0.015 1.954,-0.034 0.373,-0.043 0.747,-0.076 1.091,-0.068 3.147,0 5.003,1.777 6.543,3.699 0.194,0.242 0.573,0.807 1.058,1.521 1.443,2.131 3.849,5.691 5.563,7.118 2.064,1.714 4.651,3.292 6.587,4.023 l 0.33,0.115 c 1.002,0.34 1.942,0.66 2.232,1.41 0.201,0.521 0.067,1.189 -0.414,2.049 -0.873,1.581 -0.619,2.036 -0.232,2.73 0.184,0.339 0.403,0.722 0.521,1.299 m -2.891,-0.872 c -0.052,-0.606 -0.21,-0.983 -0.349,-1.319 -0.256,-0.611 -0.454,-1.09 0.172,-2.477 0.294,-0.648 0.358,-1.152 0.197,-1.552 -0.249,-0.626 -1.047,-0.956 -1.97,-1.332 l -0.347,-0.14 C 8.474,27.662 6.138,26.188 4.183,24.584 2.71,23.375 0.775,20.775 -0.636,18.879 c -0.712,-0.958 -1.27,-1.71 -1.596,-2.056 -0.091,-0.102 -0.18,-0.206 -0.269,-0.307 -1.382,-1.5 -2.951,-2.961 -5.609,-2.961 -0.344,0 -0.708,0.025 -1.077,0.074 -0.072,0.008 -0.196,0.016 -0.357,0.019 -0.015,-0.064 -0.022,-0.128 -0.035,-0.195 0.166,-0.004 0.295,-0.01 0.366,-0.019 0.379,-0.053 0.752,-0.075 1.103,-0.075 2.739,0 4.344,1.492 5.75,3.024 0.096,0.101 0.184,0.209 0.273,0.309 0.33,0.347 0.892,1.107 1.609,2.068 1.406,1.889 3.33,4.479 4.788,5.674 1.939,1.589 4.257,3.055 6.043,3.822 l 0.342,0.14 c 0.963,0.393 1.799,0.738 2.078,1.444 0.182,0.448 0.114,1.007 -0.198,1.701 -0.595,1.31 -0.416,1.734 -0.172,2.322 0.144,0.345 0.308,0.741 0.365,1.365 0.1,0.443 0.095,0.833 -0.017,1.168 -0.067,-0.014 -0.131,-0.032 -0.198,-0.045 0.108,-0.305 0.118,-0.663 0.019,-1.093 M 9.604,35.53 C 9.862,35.229 9.948,34.835 9.871,34.336 9.893,33.643 9.788,33.26 9.692,32.925 9.549,32.418 9.44,32.021 9.785,30.917 10.247,29.454 9.307,28.996 7.886,28.304 L 7.591,28.158 C 5.973,27.364 3.849,25.97 2.051,24.517 0.777,23.482 -0.823,21.539 -2.113,19.978 -2.94,18.97 -3.659,18.1 -4.126,17.663 -4.214,17.569 -4.299,17.479 -4.387,17.389 -5.743,16.072 -7.029,14.826 -9.311,14.758 -9.327,14.69 -9.339,14.627 -9.356,14.56 c 2.393,0.057 3.771,1.391 5.109,2.693 0.086,0.09 0.176,0.182 0.255,0.271 0.476,0.443 1.194,1.317 2.03,2.329 1.282,1.556 2.878,3.491 4.138,4.511 1.785,1.442 3.892,2.832 5.507,3.617 l 0.292,0.144 c 1.401,0.686 2.506,1.229 1.997,2.851 -0.331,1.047 -0.223,1.42 -0.09,1.894 0.098,0.351 0.207,0.747 0.182,1.454 0.085,0.512 -0.011,0.942 -0.276,1.282 C 9.724,35.585 9.657,35.563 9.593,35.543 9.597,35.536 9.601,35.535 9.604,35.53 M 6.868,34.33 C 7.093,34.088 7.193,33.786 7.174,33.415 7.362,32.204 7.341,32.02 7.269,31.407 7.244,31.167 7.21,30.859 7.179,30.367 7.505,29.38 6.544,28.833 5.224,28.069 L 4.91,27.89 C 3.449,27.066 1.589,25.783 -0.071,24.461 -1.18,23.582 -2.496,22.166 -3.658,20.921 -4.549,19.96 -5.391,19.057 -6.013,18.526 l -0.533,-0.483 c -0.767,-0.662 -1.475,-1.271 -2.34,-1.654 -0.026,-0.08 -0.048,-0.164 -0.07,-0.245 0.957,0.384 1.71,1.036 2.537,1.751 l 0.295,0.252 0.242,0.233 c 0.626,0.536 1.474,1.446 2.368,2.404 1.154,1.244 2.467,2.653 3.563,3.527 1.654,1.315 3.506,2.587 4.957,3.407 L 5.321,27.9 c 1.352,0.778 2.419,1.392 2.052,2.491 0.032,0.453 0.065,0.756 0.092,0.994 0.069,0.613 0.094,0.822 -0.096,2.037 0.023,0.411 -0.096,0.76 -0.359,1.041 C 6.995,34.484 6.967,34.501 6.952,34.517 6.886,34.49 6.819,34.461 6.755,34.43 6.792,34.396 6.832,34.366 6.868,34.33 M 4.485,32.494 C 4.601,32.079 4.702,31.78 4.778,31.564 5.006,30.907 5.015,30.883 4.584,29.902 l -0.009,-0.022 0,-0.026 C 4.617,29.245 3.679,28.611 2.489,27.807 L 2.239,27.643 C 0.95,26.789 -0.659,25.624 -2.168,24.45 -3.118,23.711 -4.175,22.736 -5.2,21.794 -6.121,20.943 -6.995,20.141 -7.767,19.526 -7.82,19.4 -7.865,19.271 -7.916,19.145 l 0.193,0.164 c 0.789,0.626 1.698,1.458 2.655,2.342 1.021,0.94 2.075,1.912 3.019,2.645 1.505,1.174 3.11,2.333 4.398,3.187 l 0.249,0.169 c 1.275,0.856 2.2,1.48 2.173,2.192 0.44,1.007 0.43,1.086 0.191,1.783 -0.081,0.228 -0.176,0.507 -0.286,0.903 -0.021,0.188 -0.101,0.43 -0.322,0.662 -0.061,-0.032 -0.12,-0.067 -0.18,-0.1 0.178,-0.174 0.284,-0.369 0.311,-0.598 M 2.384,30.459 C 2.662,30.043 2.667,30.039 2.011,29.367 1.451,28.801 -1.876,26.2 -5.887,23.18 c -0.082,-0.139 -0.164,-0.284 -0.247,-0.426 4.215,3.166 7.689,5.879 8.281,6.48 0.708,0.723 0.737,0.821 0.397,1.331 -0.147,0.22 -0.35,0.521 -0.564,1.048 -10e-4,0.011 -0.008,0.02 -0.009,0.025 C 1.916,31.602 1.863,31.564 1.809,31.527 2.029,30.991 2.244,30.673 2.384,30.459 M 29.447,12.822 c -0.813,0.973 -1.671,1.464 -2.549,1.464 -2.27,0 -3.955,-3.293 -4.182,-4.136 -0.51,-1.884 -2.726,-8.06 -9.884,-8.479 0,0 -0.458,0.018 -1.186,0.018 -2.245,0 -7.752,-0.216 -10.387,-2.212 -0.015,-0.012 -1.428,-0.893 -3.21,-2.258 -0.649,-0.49 -1.767,-0.692 -2.951,-0.903 -0.778,-0.141 -1.563,-0.283 -2.266,-0.513 0.03,-0.057 0.063,-0.113 0.093,-0.175 0.678,0.221 1.448,0.361 2.206,0.493 1.21,0.218 2.35,0.422 3.033,0.944 1.778,1.356 3.186,2.236 3.207,2.249 2.595,1.969 8.051,2.18 10.275,2.18 0.723,0 1.173,-0.021 1.19,-0.021 7.299,0.427 9.55,6.713 10.067,8.628 0.191,0.705 1.839,3.991 3.995,3.991 0.817,0 1.622,-0.473 2.398,-1.397 2.314,-2.767 3.257,-3.133 9.392,-5.499 2.111,-0.815 4.806,-1.857 8.365,-3.305 0.01,0.066 0.017,0.134 0.029,0.201 -3.541,1.441 -6.221,2.472 -8.323,3.285 -6.091,2.353 -7.029,2.713 -9.312,5.445 m 7.058,-6.547 c -2.345,0.783 -3.898,1.297 -5.508,2.027 -0.88,0.403 -1.77,0.661 -2.881,0.846 -0.227,0.038 -0.456,0.055 -0.68,0.055 -2.555,0 -4.219,-2.311 -5.018,-3.425 L 22.321,5.643 C 22.251,5.544 22.163,5.416 22.059,5.256 21.096,3.793 18.461,-0.199 12.33,0.156 12.222,0.162 12.082,0.178 11.921,0.195 11.607,0.23 11.212,0.272 10.751,0.285 10.661,0.287 10.531,0.297 10.369,0.308 9.96,0.334 9.341,0.371 8.61,0.371 5.795,0.371 3.67,-0.205 2.304,-1.35 2.253,-1.392 2.179,-1.451 2.085,-1.523 L 1.893,-1.676 C 1.669,-1.914 1.308,-2.257 0.851,-2.694 0.581,-2.952 0.277,-3.246 -0.046,-3.561 -0.528,-4.029 -1.177,-4.453 -1.865,-4.9 -2.866,-5.557 -3.901,-6.234 -4.64,-7.178 c -0.158,-0.201 -0.295,-0.418 -0.421,-0.641 0.042,-0.06 0.086,-0.117 0.126,-0.175 0.135,0.242 0.278,0.48 0.45,0.698 0.718,0.918 1.74,1.587 2.728,2.232 0.697,0.456 1.355,0.882 1.845,1.365 0.326,0.315 0.632,0.603 0.899,0.865 0.461,0.438 0.821,0.785 1.039,1.018 l 0.181,0.138 c 0.097,0.074 0.173,0.136 0.223,0.178 1.333,1.112 3.409,1.678 6.18,1.678 0.724,0 1.337,-0.036 1.746,-0.066 0.165,-0.01 0.3,-0.018 0.387,-0.019 0.455,-0.015 0.844,-0.059 1.159,-0.09 0.165,-0.021 0.304,-0.034 0.411,-0.042 6.259,-0.358 8.93,3.701 9.914,5.191 0.098,0.155 0.182,0.28 0.252,0.376 l 0.098,0.138 c 0.782,1.083 2.404,3.341 4.859,3.341 0.215,0 0.431,-0.019 0.648,-0.052 1.095,-0.182 1.969,-0.437 2.83,-0.829 1.621,-0.734 3.177,-1.255 5.528,-2.035 1.789,-0.597 4.012,-1.335 7.061,-2.437 1.177,-0.426 2.25,-0.873 3.259,-1.341 0.015,0.067 0.031,0.13 0.046,0.195 -1.005,0.464 -2.073,0.91 -3.234,1.328 -3.053,1.102 -5.278,1.844 -7.069,2.439 M 29.532,4.832 29.283,4.855 c -0.199,0.026 -0.398,0.036 -0.595,0.036 -2.163,0 -3.654,-1.356 -4.743,-2.35 -0.139,-0.127 -0.272,-0.244 -0.4,-0.357 L 23.229,1.902 c -1.684,-1.498 -3.781,-3.363 -8.307,-3.363 -1.111,0 -2.331,0.117 -3.634,0.344 -0.052,0.008 -0.128,0.025 -0.224,0.044 C 10.541,-0.965 9.45,-0.739 8.141,-0.739 7.088,-0.742 4.63,-0.743 3.193,-2.316 L 3.089,-2.431 C 3.011,-2.518 2.935,-2.6 2.85,-2.695 2.219,-3.658 1.061,-5.114 -0.061,-6.521 c -0.663,-0.831 -1.285,-1.616 -1.777,-2.268 -0.288,-0.383 -0.717,-1.016 -1.089,-1.779 0.048,-0.055 0.094,-0.108 0.139,-0.162 0.372,0.783 0.816,1.435 1.106,1.824 0.492,0.65 1.116,1.433 1.775,2.263 1.124,1.411 2.287,2.869 2.914,3.829 0.074,0.085 0.149,0.167 0.226,0.25 l 0.107,0.117 c 1.376,1.509 3.776,1.511 4.819,1.511 1.273,0 2.346,-0.22 2.868,-0.328 0.097,-0.023 0.173,-0.034 0.227,-0.045 1.314,-0.229 2.548,-0.345 3.668,-0.345 4.601,0 6.728,1.89 8.438,3.412 l 0.317,0.28 c 0.129,0.112 0.26,0.233 0.403,0.36 1.063,0.969 2.518,2.295 4.608,2.295 0.189,0 0.383,-0.011 0.575,-0.031 L 29.517,4.64 c 3.544,-0.335 6.892,-0.652 14.485,-3.171 0.835,-0.28 1.613,-0.567 2.344,-0.862 0.017,0.06 0.037,0.125 0.053,0.191 C 45.671,1.09 44.897,1.379 44.068,1.654 36.448,4.181 33.089,4.5 29.532,4.832 m -3.152,-5.04 c -3.028,-2.003 -4.627,-2.963 -7.827,-2.963 -2,0 -4.615,0.366 -9.326,1.315 C 9.16,-1.842 5.441,-1.006 3.914,-3.393 2.782,-5.155 0.899,-7.951 -1.399,-11.27 l -0.086,-0.121 c -0.072,-0.107 -0.163,-0.266 -0.255,-0.464 0.052,-0.052 0.097,-0.106 0.146,-0.153 0.099,0.224 0.195,0.397 0.269,0.503 l 0.086,0.126 c 2.296,3.318 4.188,6.115 5.318,7.882 1.453,2.27 5.083,1.455 5.105,1.45 4.725,-0.953 7.354,-1.319 9.369,-1.319 3.251,0 4.954,1.024 7.936,2.997 1.805,1.189 4.016,1.769 6.759,1.769 3.434,0 7.596,-0.909 12.614,-2.358 0.024,0.06 0.046,0.124 0.066,0.185 -5.04,1.454 -9.223,2.371 -12.68,2.371 -2.781,0 -5.026,-0.591 -6.868,-1.806 m 1.797,-1.384 c -2.73,-1.797 -5.723,-2.996 -11.471,-2.996 -1.145,0 -2.406,0.047 -3.75,0.143 -0.21,0.014 -0.556,0.085 -0.996,0.173 -0.863,0.168 -2.048,0.4 -3.121,0.4 -1.166,0 -1.94,-0.271 -2.361,-0.827 C 5.94,-5.408 5.103,-6.167 4.294,-6.901 3.058,-8.023 1.889,-9.083 1.733,-9.978 1.67,-10.356 1.514,-10.787 1.351,-11.244 c -0.29,-0.809 -0.626,-1.744 -0.641,-2.815 0.068,-0.05 0.136,-0.103 0.202,-0.156 -0.017,1.106 0.327,2.074 0.625,2.906 0.166,0.465 0.324,0.905 0.392,1.299 0.141,0.826 1.34,1.911 2.5,2.965 0.814,0.738 1.659,1.505 2.207,2.229 0.375,0.501 1.116,0.753 2.203,0.753 1.056,0 2.225,-0.234 3.082,-0.402 0.445,-0.09 0.801,-0.16 1.024,-0.176 1.345,-0.093 2.613,-0.14 3.761,-0.14 5.798,0 8.824,1.209 11.58,3.03 1.504,0.995 3.368,1.478 5.702,1.478 2.845,0 6.382,-0.706 11.29,-2.264 0.025,0.058 0.048,0.119 0.07,0.182 -4.936,1.568 -8.489,2.277 -11.36,2.277 -2.371,0 -4.275,-0.494 -5.811,-1.514 M 3.676,-14.139 c 0.103,1.051 0.392,1.667 0.701,2.319 0.303,0.646 0.622,1.314 0.729,2.435 0.142,1.466 1.639,2.076 2.841,2.563 0.496,0.202 0.967,0.394 1.283,0.619 0.227,0.166 0.629,0.246 1.196,0.246 0.889,0 2.077,-0.197 3.222,-0.39 1.123,-0.188 2.187,-0.362 2.968,-0.362 l 0.086,0 c 5.54,0.1 11.543,2.416 13.379,3.572 1.276,0.805 2.887,1.211 4.789,1.211 2.535,0 5.699,-0.724 9.398,-2.156 0.088,-0.034 0.188,-0.081 0.277,-0.122 0.03,0.061 0.053,0.12 0.084,0.179 -0.097,0.043 -0.195,0.087 -0.294,0.123 -3.719,1.441 -6.903,2.173 -9.465,2.173 -1.942,0 -3.587,-0.418 -4.892,-1.242 C 28.157,-4.119 22.203,-6.416 16.7,-6.516 l -0.084,0 c -0.765,0 -1.817,0.177 -2.931,0.362 -1.155,0.195 -2.35,0.392 -3.259,0.392 -0.619,0 -1.046,-0.092 -1.312,-0.282 C 8.817,-6.258 8.358,-6.443 7.873,-6.64 6.619,-7.15 5.062,-7.782 4.911,-9.367 4.809,-10.452 4.499,-11.105 4.2,-11.738 3.897,-12.373 3.584,-13.035 3.48,-14.12 c -0.059,-0.605 -0.095,-1.235 -0.066,-1.873 0.07,-0.047 0.138,-0.091 0.207,-0.133 -0.042,0.678 -0.011,1.351 0.055,1.987 m 2.851,1.462 c 0.414,0.657 0.711,0.85 0.95,1.005 0.431,0.279 0.611,0.457 0.738,2.1 0.108,1.364 0.911,2.025 2.452,2.025 0.323,0 0.638,-0.028 0.889,-0.051 0.099,-0.007 0.19,-0.016 0.271,-0.019 0.342,-0.028 0.879,-0.103 1.557,-0.202 1.495,-0.216 3.544,-0.511 5.463,-0.511 0.589,0 1.136,0.03 1.62,0.085 3.05,0.358 11.316,3.688 11.4,3.721 1.727,0.753 3.208,1.1 4.651,1.1 1.752,0 3.444,-0.547 5.026,-1.637 0.023,-0.011 0.764,-0.439 1.939,-1.12 0.035,0.055 0.069,0.11 0.1,0.169 -1.174,0.68 -1.913,1.105 -1.933,1.116 -1.613,1.108 -3.337,1.667 -5.132,1.667 -1.473,0 -2.976,-0.356 -4.727,-1.117 -0.084,-0.032 -8.323,-3.348 -11.348,-3.704 -0.48,-0.059 -1.012,-0.087 -1.596,-0.087 -1.906,0 -3.946,0.297 -5.437,0.514 -0.681,0.096 -1.221,0.176 -1.571,0.197 -0.08,0.006 -0.166,0.013 -0.266,0.022 -0.256,0.023 -0.574,0.051 -0.906,0.051 -1.665,0 -2.529,-0.719 -2.648,-2.206 -0.125,-1.61 -0.3,-1.724 -0.647,-1.952 -0.244,-0.155 -0.574,-0.368 -1.01,-1.062 -0.934,-1.484 -1.249,-3.26 -1.062,-4.518 0.073,-0.035 0.143,-0.073 0.213,-0.107 -0.217,1.211 0.081,3.038 1.014,4.521 m 3.445,-6.345 c -1.311,0.769 -2.053,1.639 -2.204,2.581 -0.158,0.988 0.376,1.843 0.855,2.386 0.408,0.488 0.763,0.688 1.073,0.864 0.612,0.353 1.014,0.582 1.143,2.411 0.123,1.796 1.02,2.028 1.786,2.028 0.483,0 1.006,-0.111 1.511,-0.215 l 0.238,-0.051 c 1.275,-0.221 3.389,-0.464 5.495,-0.464 0.939,0 1.808,0.047 2.58,0.144 2.403,0.291 7.187,2.279 9.487,3.233 0.588,0.242 1.011,0.417 1.168,0.472 1.075,0.396 2.496,0.852 4.017,0.852 1.703,0 3.23,-0.559 4.677,-1.719 0.065,-0.054 0.452,-0.297 1.079,-0.688 0.037,0.053 0.07,0.11 0.108,0.165 -0.613,0.382 -1.004,0.63 -1.066,0.677 -1.483,1.184 -3.052,1.758 -4.798,1.758 -1.55,0 -2.996,-0.461 -4.082,-0.86 -0.159,-0.054 -0.585,-0.236 -1.179,-0.476 -2.29,-0.953 -7.061,-2.932 -9.436,-3.222 -0.763,-0.093 -1.623,-0.136 -2.555,-0.136 -2.094,0 -4.191,0.235 -5.455,0.459 l -0.237,0.048 c -0.514,0.107 -1.05,0.218 -1.552,0.218 -1.249,0 -1.877,-0.702 -1.982,-2.205 -0.121,-1.73 -0.468,-1.929 -1.042,-2.256 -0.311,-0.179 -0.7,-0.398 -1.129,-0.91 -0.504,-0.57 -1.066,-1.48 -0.898,-2.547 0.141,-0.879 0.757,-1.694 1.853,-2.432 0.284,-0.098 0.565,-0.195 0.853,-0.279 -0.119,0.058 -0.224,0.113 -0.308,0.164 m 5.516,-0.995 c -0.132,0.068 -0.22,0.11 -0.265,0.131 -2.054,1.066 -3.155,2.09 -3.28,3.045 -0.103,0.763 0.447,1.362 0.874,1.757 0.328,0.357 0.593,0.572 0.828,0.761 0.576,0.456 0.894,0.714 1.056,2.43 0.153,1.575 0.887,1.791 1.666,1.791 0.345,0 0.726,-0.051 1.134,-0.101 0.225,-0.029 0.454,-0.062 0.685,-0.08 0.441,-0.054 0.985,-0.08 1.607,-0.08 1.464,0 3.424,0.141 5.52,0.404 1.847,0.234 4.516,1.2 6.659,1.972 1.233,0.444 2.294,0.829 2.79,0.915 0.774,0.183 1.792,0.396 2.837,0.396 1.683,0 3.116,-0.539 4.49,-1.689 0.041,0.054 0.079,0.107 0.116,0.159 -1.392,1.159 -2.9,1.726 -4.606,1.726 -1.061,0 -2.098,-0.215 -2.878,-0.403 -0.504,-0.086 -1.524,-0.455 -2.816,-0.922 -2.135,-0.769 -4.791,-1.726 -6.616,-1.96 -2.088,-0.258 -4.039,-0.403 -5.496,-0.403 -0.613,0 -1.147,0.025 -1.586,0.079 -0.228,0.019 -0.461,0.051 -0.685,0.08 -0.405,0.055 -0.796,0.103 -1.155,0.103 -1.175,0 -1.73,-0.586 -1.863,-1.967 -0.149,-1.641 -0.427,-1.861 -0.981,-2.299 -0.229,-0.182 -0.512,-0.409 -0.847,-0.777 -0.451,-0.414 -1.041,-1.062 -0.927,-1.916 0.132,-1.036 1.24,-2.081 3.387,-3.198 0.049,-0.021 0.138,-0.064 0.265,-0.128 0.03,-0.016 0.073,-0.038 0.112,-0.055 0.181,-0.021 0.366,-0.042 0.551,-0.055 -0.234,0.112 -0.43,0.214 -0.576,0.284 m 3.396,4.234 c -0.467,-0.478 -1.177,-1.191 -1.009,-2.142 0.151,-0.824 0.924,-1.643 2.35,-2.48 0.115,0.003 0.23,0.02 0.345,0.029 -1.513,0.85 -2.358,1.684 -2.501,2.484 -0.152,0.852 0.514,1.526 0.956,1.971 l 0.082,0.086 c 0.622,0.832 0.615,1.136 0.601,1.64 -0.006,0.289 -0.016,0.648 0.094,1.237 0.237,1.251 1.082,1.297 2.149,1.358 0.428,0.022 0.868,0.046 1.315,0.15 0.313,0.071 0.738,0.183 1.234,0.319 1.299,0.339 3.082,0.815 4.551,1.008 1.175,0.152 2.403,0.411 3.589,0.66 1.532,0.32 2.98,0.623 3.956,0.623 0.071,0 0.143,-0.002 0.219,-0.006 1.349,-0.007 2.765,-0.097 4.242,-0.886 0.044,0.052 0.082,0.102 0.125,0.155 -1.523,0.825 -2.979,0.919 -4.362,0.925 -0.994,0.052 -2.555,-0.274 -4.217,-0.621 -1.187,-0.25 -2.41,-0.504 -3.577,-0.661 -1.48,-0.189 -3.271,-0.666 -4.576,-1.012 -0.494,-0.13 -0.92,-0.24 -1.23,-0.317 -0.429,-0.094 -0.862,-0.119 -1.278,-0.141 -1.064,-0.061 -2.067,-0.116 -2.33,-1.516 -0.116,-0.61 -0.103,-0.978 -0.099,-1.279 0.011,-0.492 0.022,-0.74 -0.553,-1.509 l -0.076,-0.075 z m 2.07,-2.356 c -0.122,0.867 0.513,1.56 0.973,2.071 l 0.069,0.071 c 0.512,0.686 0.553,0.966 0.625,1.43 0.036,0.223 0.078,0.504 0.189,0.899 0.274,0.963 0.962,1.088 1.835,1.24 0.334,0.062 0.68,0.121 1.026,0.239 l 0.256,0.086 c 1.119,0.378 2.988,1.009 4.523,1.283 0.763,0.14 1.557,0.306 2.324,0.473 1.573,0.335 3.057,0.654 4.082,0.654 l 0.133,-0.002 0.078,0 c 1.296,0 2.393,-0.211 3.467,-0.667 0.048,0.053 0.091,0.102 0.137,0.156 -1.117,0.483 -2.252,0.705 -3.604,0.705 l -0.078,0 -0.133,0.003 c -1.044,0 -2.543,-0.321 -4.123,-0.66 -0.767,-0.164 -1.558,-0.332 -2.319,-0.468 -1.548,-0.279 -3.428,-0.913 -4.548,-1.294 l -0.255,-0.085 c -0.333,-0.112 -0.672,-0.173 -1,-0.231 -0.868,-0.151 -1.682,-0.296 -1.99,-1.38 -0.113,-0.408 -0.159,-0.691 -0.19,-0.919 -0.071,-0.449 -0.11,-0.699 -0.584,-1.336 l -0.064,-0.065 c -0.488,-0.541 -1.157,-1.272 -1.024,-2.232 0.098,-0.686 0.598,-1.362 1.516,-2.047 0.094,0.011 0.187,0.021 0.278,0.033 -0.965,0.692 -1.505,1.375 -1.599,2.043 m 9.156,44.367 c -0.909,-7.152 -1.631,-12.8 1.676,-14.2 2.577,-1.098 5.085,-2.374 7.504,-3.608 2.551,-1.297 5.128,-2.606 7.865,-3.75 0.008,0.066 0.016,0.135 0.028,0.199 -2.714,1.14 -5.278,2.44 -7.802,3.727 -2.424,1.236 -4.934,2.511 -7.519,3.61 -3.168,1.348 -2.459,6.931 -1.556,13.998 l 0.098,0.773 c 0.135,1.065 0.96,3.79 1.864,6.55 -0.059,0.029 -0.121,0.056 -0.179,0.091 -0.904,-2.751 -1.736,-5.504 -1.88,-6.615 L 30.11,26.228 z m 2.265,-9.664 c 0.348,-1.073 0.877,-1.793 1.569,-2.136 1.82,-0.912 3.574,-2.071 5.429,-3.293 2.35,-1.554 4.894,-3.229 7.959,-4.641 0.006,0.07 0.01,0.139 0.016,0.205 -3.027,1.408 -5.54,3.063 -7.868,4.599 -1.86,1.227 -3.619,2.388 -5.446,3.304 -0.648,0.322 -1.143,1.002 -1.474,2.024 -1.098,3.403 -0.229,10.026 1.315,15.965 -0.055,0.036 -0.113,0.077 -0.168,0.111 -1.564,-5.991 -2.445,-12.695 -1.332,-16.138 m 3.712,0.267 c -1.928,1.587 -2.297,8.638 -1.175,15.086 0.057,-0.039 0.108,-0.081 0.163,-0.115 -1.102,-6.353 -0.755,-13.26 1.136,-14.821 0.739,-0.61 1.468,-1.289 2.242,-2.008 2.232,-2.078 4.832,-4.494 8.933,-6.369 0,-0.072 0.003,-0.143 0.003,-0.219 -4.172,1.89 -6.808,4.338 -9.07,6.444 l -2.232,2.002 z m 2.87,0 c 0.135,-0.16 0.278,-0.326 0.43,-0.499 1.633,-1.908 3.826,-4.464 7.962,-6.464 -0.003,0.081 -0.011,0.153 -0.019,0.228 -4.036,1.974 -6.191,4.485 -7.796,6.362 -0.149,0.174 -0.291,0.341 -0.442,0.509 -1.588,1.503 -2.642,6.446 -2.593,9.941 0.019,0.967 0.034,2.277 0.144,3.718 -0.063,0.049 -0.125,0.096 -0.186,0.144 -0.114,-1.498 -0.137,-2.856 -0.153,-3.859 -0.051,-3.537 1.028,-8.55 2.653,-10.08 m -0.811,7.905 c -0.025,-1.704 1.724,-8.245 4.398,-10.302 0.788,-0.907 2.375,-2.231 4.718,-3.482 -0.007,0.077 -0.013,0.152 -0.018,0.228 -2.261,1.22 -3.795,2.506 -4.561,3.391 -2.473,1.905 -4.366,8.262 -4.341,10.161 0.004,0.307 -0.025,0.772 -0.06,1.365 -0.051,0.846 -0.115,1.966 -0.121,3.217 -0.064,0.062 -0.132,0.119 -0.195,0.18 -0.002,-1.33 0.068,-2.519 0.121,-3.409 0.034,-0.587 0.066,-1.051 0.059,-1.349 M 46.19,11.961 c 0.021,-0.01 0.384,-0.172 1.011,-0.424 0,0.016 -0.002,0.027 -0.007,0.045 -0.746,0.369 -1.349,0.719 -1.797,1 0.26,-0.23 0.523,-0.444 0.793,-0.621 m -0.854,0.734 c 0.465,-0.309 1.088,-0.691 1.858,-1.097 -0.004,0.056 -0.014,0.118 -0.023,0.175 -0.57,0.245 -0.9,0.401 -0.917,0.407 -3.495,2.434 -6.055,10.335 -6.073,10.409 -0.015,0.051 -0.603,2.399 -0.747,5.468 -0.065,0.071 -0.129,0.141 -0.199,0.212 0.12,-3.199 0.742,-5.681 0.756,-5.733 0.026,-0.071 2.212,-6.839 5.345,-9.841 m 1.66,0.285 c -0.015,0.096 -0.032,0.192 -0.049,0.286 -3.544,2.759 -5.691,10.212 -5.713,10.296 -0.008,0.03 -0.32,1.263 -0.519,3.071 -0.068,0.083 -0.142,0.165 -0.216,0.251 0.196,-1.978 0.539,-3.342 0.552,-3.377 0.095,-0.34 2.254,-7.845 5.945,-10.527 m -0.451,2.167 c -0.036,0.146 -0.065,0.292 -0.101,0.434 -2.698,3.337 -4.111,8.799 -4.131,8.874 -0.002,0.005 -0.014,0.046 -0.028,0.114 -0.093,0.134 -0.187,0.267 -0.283,0.397 0.074,-0.349 0.124,-0.549 0.129,-0.562 0.08,-0.302 1.542,-5.978 4.414,-9.257" /></g></g><g id="g4112"><g transform="translate(49.8008,181.0909)" id="g3813"><path inkscape:connector-curvature="0" id="path3815" style="fill:#6ed0f0;fill-opacity:1;fill-rule:nonzero;stroke:none" d="M 0,0 C 0.062,0.019 0.116,0.047 0.168,0.081 0.111,0.056 0.057,0.026 0,0" /></g><g transform="translate(52.2691,181.0493)" id="g3817"><path inkscape:connector-curvature="0" id="path3819" style="fill:#6ed0f0;fill-opacity:1;fill-rule:nonzero;stroke:none" d="M 0,0 C 0.391,0 0.7,0.304 0.7,0.676 0.7,0.832 0.637,0.966 0.548,1.08 0.131,0.973 -0.285,0.862 -0.69,0.729 -0.69,0.71 -0.701,0.695 -0.701,0.676 -0.701,0.304 -0.388,0 0,0" /></g><g transform="translate(54.9478,182.3994)" id="g3821"><path inkscape:connector-curvature="0" id="path3823" style="fill:#6ed0f0;fill-opacity:1;fill-rule:nonzero;stroke:none" d="m 0,0 c -0.388,0 -0.702,-0.301 -0.702,-0.674 0,-0.372 0.314,-0.676 0.702,-0.676 0.392,0 0.699,0.304 0.699,0.676 C 0.699,-0.301 0.392,0 0,0" /></g><g transform="translate(46.9092,178.4385)" id="g3825"><path inkscape:connector-curvature="0" id="path3827" style="fill:#6ed0f0;fill-opacity:1;fill-rule:nonzero;stroke:none" d="M 0,0 C 0.391,0 0.7,0.303 0.7,0.675 0.7,0.936 0.543,1.153 0.321,1.266 -0.021,1.046 -0.352,0.813 -0.679,0.574 -0.627,0.25 -0.351,0 0,0" /></g><g transform="translate(49.5894,179.7867)" id="g3829"><path inkscape:connector-curvature="0" id="path3831" style="fill:#6ed0f0;fill-opacity:1;fill-rule:nonzero;stroke:none" d="m 0,0 c -0.39,0 -0.701,-0.3 -0.701,-0.673 0,-0.373 0.311,-0.675 0.701,-0.675 0.39,0 0.7,0.302 0.7,0.675 C 0.7,-0.3 0.39,0 0,0" /></g><g transform="translate(52.2691,179.7867)" id="g3833"><path inkscape:connector-curvature="0" id="path3835" style="fill:#6ed0f0;fill-opacity:1;fill-rule:nonzero;stroke:none" d="m 0,0 c -0.388,0 -0.701,-0.3 -0.701,-0.673 0,-0.373 0.313,-0.675 0.701,-0.675 0.391,0 0.7,0.302 0.7,0.675 C 0.7,-0.3 0.391,0 0,0" /></g><g transform="translate(54.9478,179.7867)" id="g3837"><path inkscape:connector-curvature="0" id="path3839" style="fill:#6ed0f0;fill-opacity:1;fill-rule:nonzero;stroke:none" d="m 0,0 c -0.388,0 -0.702,-0.3 -0.702,-0.673 0,-0.373 0.314,-0.675 0.702,-0.675 0.392,0 0.699,0.302 0.699,0.675 C 0.699,-0.3 0.392,0 0,0" /></g><g transform="translate(44.229,175.8262)" id="g3841"><path inkscape:connector-curvature="0" id="path3843" style="fill:#6ed0f0;fill-opacity:1;fill-rule:nonzero;stroke:none" d="M 0,0 C 0.392,0 0.699,0.303 0.699,0.676 0.699,1.047 0.392,1.35 0,1.35 -0.081,1.35 -0.154,1.33 -0.226,1.306 -0.381,1.15 -0.521,0.982 -0.67,0.824 -0.682,0.775 -0.701,0.727 -0.701,0.676 -0.701,0.303 -0.386,0 0,0" /></g><g transform="translate(46.9092,177.1758)" id="g3845"><path inkscape:connector-curvature="0" id="path3847" style="fill:#6ed0f0;fill-opacity:1;fill-rule:nonzero;stroke:none" d="m 0,0 c -0.389,0 -0.702,-0.303 -0.702,-0.674 0,-0.372 0.313,-0.675 0.702,-0.675 0.391,0 0.7,0.303 0.7,0.675 C 0.7,-0.303 0.391,0 0,0" /></g><g transform="translate(49.5894,177.1758)" id="g3849"><path inkscape:connector-curvature="0" id="path3851" style="fill:#6ed0f0;fill-opacity:1;fill-rule:nonzero;stroke:none" d="m 0,0 c -0.39,0 -0.701,-0.303 -0.701,-0.674 0,-0.372 0.311,-0.675 0.701,-0.675 0.39,0 0.7,0.303 0.7,0.675 C 0.7,-0.303 0.39,0 0,0" /></g><g transform="translate(52.2691,177.1758)" id="g3853"><path inkscape:connector-curvature="0" id="path3855" style="fill:#6ed0f0;fill-opacity:1;fill-rule:nonzero;stroke:none" d="m 0,0 c -0.388,0 -0.701,-0.303 -0.701,-0.674 0,-0.372 0.313,-0.675 0.701,-0.675 0.391,0 0.7,0.303 0.7,0.675 C 0.7,-0.303 0.391,0 0,0" /></g><g transform="translate(54.9478,177.1758)" id="g3857"><path inkscape:connector-curvature="0" id="path3859" style="fill:#6ed0f0;fill-opacity:1;fill-rule:nonzero;stroke:none" d="m 0,0 c -0.388,0 -0.702,-0.303 -0.702,-0.674 0,-0.372 0.314,-0.675 0.702,-0.675 0.392,0 0.699,0.303 0.699,0.675 C 0.699,-0.303 0.392,0 0,0" /></g><g transform="translate(42.2486,173.8897)" id="g3861"><path inkscape:connector-curvature="0" id="path3863" style="fill:#6ed0f0;fill-opacity:1;fill-rule:nonzero;stroke:none" d="M 0,0 C 0,0.284 -0.178,0.524 -0.436,0.622 -0.691,0.258 -0.926,-0.12 -1.157,-0.501 -1.034,-0.608 -0.876,-0.675 -0.7,-0.675 -0.308,-0.675 0,-0.373 0,0" /></g><g transform="translate(44.229,174.564)" id="g3865"><path inkscape:connector-curvature="0" id="path3867" style="fill:#6ed0f0;fill-opacity:1;fill-rule:nonzero;stroke:none" d="m 0,0 c -0.386,0 -0.701,-0.302 -0.701,-0.674 0,-0.373 0.315,-0.676 0.701,-0.676 0.392,0 0.699,0.303 0.699,0.676 C 0.699,-0.302 0.392,0 0,0" /></g><g transform="translate(46.9092,174.564)" id="g3869"><path inkscape:connector-curvature="0" id="path3871" style="fill:#6ed0f0;fill-opacity:1;fill-rule:nonzero;stroke:none" d="m 0,0 c -0.389,0 -0.702,-0.302 -0.702,-0.674 0,-0.373 0.313,-0.676 0.702,-0.676 0.391,0 0.7,0.303 0.7,0.676 C 0.7,-0.302 0.391,0 0,0" /></g><g transform="translate(49.5894,174.564)" id="g3873"><path inkscape:connector-curvature="0" id="path3875" style="fill:#6ed0f0;fill-opacity:1;fill-rule:nonzero;stroke:none" d="m 0,0 c -0.39,0 -0.701,-0.302 -0.701,-0.674 0,-0.373 0.311,-0.676 0.701,-0.676 0.39,0 0.7,0.303 0.7,0.676 C 0.7,-0.302 0.39,0 0,0" /></g><g transform="translate(52.2691,174.564)" id="g3877"><path inkscape:connector-curvature="0" id="path3879" style="fill:#6ed0f0;fill-opacity:1;fill-rule:nonzero;stroke:none" d="m 0,0 c -0.388,0 -0.701,-0.302 -0.701,-0.674 0,-0.373 0.313,-0.676 0.701,-0.676 0.391,0 0.7,0.303 0.7,0.676 C 0.7,-0.302 0.391,0 0,0" /></g><g transform="translate(54.9478,174.564)" id="g3881"><path inkscape:connector-curvature="0" id="path3883" style="fill:#6ed0f0;fill-opacity:1;fill-rule:nonzero;stroke:none" d="m 0,0 c -0.388,0 -0.702,-0.302 -0.702,-0.674 0,-0.373 0.314,-0.676 0.702,-0.676 0.392,0 0.699,0.303 0.699,0.676 C 0.699,-0.302 0.392,0 0,0" /></g><g transform="translate(41.5493,171.9527)" id="g3885"><path inkscape:connector-curvature="0" id="path3887" style="fill:#6ed0f0;fill-opacity:1;fill-rule:nonzero;stroke:none" d="m 0,0 c -0.387,0 -0.702,-0.301 -0.702,-0.674 0,-0.373 0.315,-0.675 0.702,-0.675 0.391,0 0.7,0.302 0.7,0.675 C 0.7,-0.301 0.391,0 0,0" /></g><g transform="translate(44.229,171.9527)" id="g3889"><path inkscape:connector-curvature="0" id="path3891" style="fill:#6ed0f0;fill-opacity:1;fill-rule:nonzero;stroke:none" d="m 0,0 c -0.386,0 -0.701,-0.301 -0.701,-0.674 0,-0.373 0.315,-0.675 0.701,-0.675 0.392,0 0.699,0.302 0.699,0.675 C 0.699,-0.301 0.392,0 0,0" /></g><g transform="translate(46.9092,171.9527)" id="g3893"><path inkscape:connector-curvature="0" id="path3895" style="fill:#6ed0f0;fill-opacity:1;fill-rule:nonzero;stroke:none" d="m 0,0 c -0.389,0 -0.702,-0.301 -0.702,-0.674 0,-0.373 0.313,-0.675 0.702,-0.675 0.391,0 0.7,0.302 0.7,0.675 C 0.7,-0.301 0.391,0 0,0" /></g><g transform="translate(49.5894,171.9527)" id="g3897"><path inkscape:connector-curvature="0" id="path3899" style="fill:#6ed0f0;fill-opacity:1;fill-rule:nonzero;stroke:none" d="m 0,0 c -0.39,0 -0.701,-0.301 -0.701,-0.674 0,-0.373 0.311,-0.675 0.701,-0.675 0.39,0 0.7,0.302 0.7,0.675 C 0.7,-0.301 0.39,0 0,0" /></g><g transform="translate(52.2691,171.9527)" id="g3901"><path inkscape:connector-curvature="0" id="path3903" style="fill:#6ed0f0;fill-opacity:1;fill-rule:nonzero;stroke:none" d="m 0,0 c -0.388,0 -0.701,-0.301 -0.701,-0.674 0,-0.373 0.313,-0.675 0.701,-0.675 0.391,0 0.7,0.302 0.7,0.675 C 0.7,-0.301 0.391,0 0,0" /></g><g transform="translate(54.9478,171.9527)" id="g3905"><path inkscape:connector-curvature="0" id="path3907" style="fill:#6ed0f0;fill-opacity:1;fill-rule:nonzero;stroke:none" d="m 0,0 c -0.388,0 -0.702,-0.301 -0.702,-0.674 0,-0.373 0.314,-0.675 0.702,-0.675 0.392,0 0.699,0.302 0.699,0.675 C 0.699,-0.301 0.392,0 0,0" /></g><g transform="translate(39.5674,168.6656)" id="g3909"><path inkscape:connector-curvature="0" id="path3911" style="fill:#6ed0f0;fill-opacity:1;fill-rule:nonzero;stroke:none" d="M 0,0 C 0,0.255 -0.149,0.467 -0.365,0.582 -0.495,0.172 -0.594,-0.252 -0.695,-0.674 -0.306,-0.672 0,-0.371 0,0" /></g><g transform="translate(41.5493,169.3399)" id="g3913"><path inkscape:connector-curvature="0" id="path3915" style="fill:#6ed0f0;fill-opacity:1;fill-rule:nonzero;stroke:none" d="m 0,0 c -0.387,0 -0.702,-0.301 -0.702,-0.674 0,-0.371 0.315,-0.674 0.702,-0.674 0.391,0 0.7,0.303 0.7,0.674 C 0.7,-0.301 0.391,0 0,0" /></g><g transform="translate(44.229,169.3399)" id="g3917"><path inkscape:connector-curvature="0" id="path3919" style="fill:#6ed0f0;fill-opacity:1;fill-rule:nonzero;stroke:none" d="m 0,0 c -0.386,0 -0.701,-0.301 -0.701,-0.674 0,-0.371 0.315,-0.674 0.701,-0.674 0.392,0 0.699,0.303 0.699,0.674 C 0.699,-0.301 0.392,0 0,0" /></g><g transform="translate(46.9092,169.3399)" id="g3921"><path inkscape:connector-curvature="0" id="path3923" style="fill:#6ed0f0;fill-opacity:1;fill-rule:nonzero;stroke:none" d="m 0,0 c -0.389,0 -0.702,-0.301 -0.702,-0.674 0,-0.371 0.313,-0.674 0.702,-0.674 0.391,0 0.7,0.303 0.7,0.674 C 0.7,-0.301 0.391,0 0,0" /></g><g transform="translate(49.5894,169.3399)" id="g3925"><path inkscape:connector-curvature="0" id="path3927" style="fill:#6ed0f0;fill-opacity:1;fill-rule:nonzero;stroke:none" d="m 0,0 c -0.39,0 -0.701,-0.301 -0.701,-0.674 0,-0.371 0.311,-0.674 0.701,-0.674 0.39,0 0.7,0.303 0.7,0.674 C 0.7,-0.301 0.39,0 0,0" /></g><g transform="translate(52.2691,169.3399)" id="g3929"><path inkscape:connector-curvature="0" id="path3931" style="fill:#6ed0f0;fill-opacity:1;fill-rule:nonzero;stroke:none" d="m 0,0 c -0.388,0 -0.701,-0.301 -0.701,-0.674 0,-0.371 0.313,-0.674 0.701,-0.674 0.391,0 0.7,0.303 0.7,0.674 C 0.7,-0.301 0.391,0 0,0" /></g><g transform="translate(54.9478,169.3399)" id="g3933"><path inkscape:connector-curvature="0" id="path3935" style="fill:#6ed0f0;fill-opacity:1;fill-rule:nonzero;stroke:none" d="m 0,0 c -0.388,0 -0.702,-0.301 -0.702,-0.674 0,-0.371 0.314,-0.674 0.702,-0.674 0.392,0 0.699,0.303 0.699,0.674 C 0.699,-0.301 0.392,0 0,0" /></g><g transform="translate(39.5674,166.0537)" id="g3937"><path inkscape:connector-curvature="0" id="path3939" style="fill:#6ed0f0;fill-opacity:1;fill-rule:nonzero;stroke:none" d="m 0,0 c 0,0.373 -0.307,0.673 -0.699,0.673 -0.094,0 -0.184,-0.02 -0.266,-0.05 -0.063,-0.377 -0.132,-0.753 -0.173,-1.136 0.121,-0.097 0.27,-0.162 0.439,-0.162 C -0.307,-0.675 0,-0.372 0,0" /></g><g transform="translate(41.5493,166.7271)" id="g3941"><path inkscape:connector-curvature="0" id="path3943" style="fill:#6ed0f0;fill-opacity:1;fill-rule:nonzero;stroke:none" d="m 0,0 c -0.387,0 -0.702,-0.3 -0.702,-0.673 0,-0.372 0.315,-0.675 0.702,-0.675 0.391,0 0.7,0.303 0.7,0.675 C 0.7,-0.3 0.391,0 0,0" /></g><g transform="translate(44.229,166.7271)" id="g3945"><path inkscape:connector-curvature="0" id="path3947" style="fill:#6ed0f0;fill-opacity:1;fill-rule:nonzero;stroke:none" d="m 0,0 c -0.386,0 -0.701,-0.3 -0.701,-0.673 0,-0.372 0.315,-0.675 0.701,-0.675 0.392,0 0.699,0.303 0.699,0.675 C 0.699,-0.3 0.392,0 0,0" /></g><g transform="translate(46.9092,166.7271)" id="g3949"><path inkscape:connector-curvature="0" id="path3951" style="fill:#6ed0f0;fill-opacity:1;fill-rule:nonzero;stroke:none" d="m 0,0 c -0.389,0 -0.702,-0.3 -0.702,-0.673 0,-0.372 0.313,-0.675 0.702,-0.675 0.391,0 0.7,0.303 0.7,0.675 C 0.7,-0.3 0.391,0 0,0" /></g><g transform="translate(49.5894,166.7271)" id="g3953"><path inkscape:connector-curvature="0" id="path3955" style="fill:#6ed0f0;fill-opacity:1;fill-rule:nonzero;stroke:none" d="m 0,0 c -0.39,0 -0.701,-0.3 -0.701,-0.673 0,-0.372 0.311,-0.675 0.701,-0.675 0.39,0 0.7,0.303 0.7,0.675 C 0.7,-0.3 0.39,0 0,0" /></g><g transform="translate(52.2691,166.7271)" id="g3957"><path inkscape:connector-curvature="0" id="path3959" style="fill:#6ed0f0;fill-opacity:1;fill-rule:nonzero;stroke:none" d="m 0,0 c -0.388,0 -0.701,-0.3 -0.701,-0.673 0,-0.372 0.313,-0.675 0.701,-0.675 0.391,0 0.7,0.303 0.7,0.675 C 0.7,-0.3 0.391,0 0,0" /></g><g transform="translate(54.9478,166.7271)" id="g3961"><path inkscape:connector-curvature="0" id="path3963" style="fill:#6ed0f0;fill-opacity:1;fill-rule:nonzero;stroke:none" d="m 0,0 c -0.388,0 -0.702,-0.3 -0.702,-0.673 0,-0.372 0.314,-0.675 0.702,-0.675 0.392,0 0.699,0.303 0.699,0.675 C 0.699,-0.3 0.392,0 0,0" /></g><g transform="translate(38.8687,162.7661)" id="g3965"><path inkscape:connector-curvature="0" id="path3967" style="fill:#6ed0f0;fill-opacity:1;fill-rule:nonzero;stroke:none" d="M 0,0 C 0.392,0 0.699,0.302 0.699,0.676 0.699,1.049 0.392,1.35 0,1.35 c -0.221,0 -0.408,-0.103 -0.538,-0.255 -0.003,-0.141 -0.02,-0.278 -0.02,-0.419 0,-0.141 0.017,-0.279 0.02,-0.42 C -0.408,0.102 -0.221,0 0,0" /></g><g transform="translate(41.5493,164.1162)" id="g3969"><path inkscape:connector-curvature="0" id="path3971" style="fill:#6ed0f0;fill-opacity:1;fill-rule:nonzero;stroke:none" d="m 0,0 c -0.387,0 -0.702,-0.302 -0.702,-0.674 0,-0.374 0.315,-0.676 0.702,-0.676 0.391,0 0.7,0.302 0.7,0.676 C 0.7,-0.302 0.391,0 0,0" /></g><g transform="translate(44.229,164.1162)" id="g3973"><path inkscape:connector-curvature="0" id="path3975" style="fill:#6ed0f0;fill-opacity:1;fill-rule:nonzero;stroke:none" d="m 0,0 c -0.386,0 -0.701,-0.302 -0.701,-0.674 0,-0.374 0.315,-0.676 0.701,-0.676 0.392,0 0.699,0.302 0.699,0.676 C 0.699,-0.302 0.392,0 0,0" /></g><g transform="translate(46.9092,164.1162)" id="g3977"><path inkscape:connector-curvature="0" id="path3979" style="fill:#6ed0f0;fill-opacity:1;fill-rule:nonzero;stroke:none" d="m 0,0 c -0.389,0 -0.702,-0.302 -0.702,-0.674 0,-0.374 0.313,-0.676 0.702,-0.676 0.391,0 0.7,0.302 0.7,0.676 C 0.7,-0.302 0.391,0 0,0" /></g><g transform="translate(49.5894,164.1162)" id="g3981"><path inkscape:connector-curvature="0" id="path3983" style="fill:#6ed0f0;fill-opacity:1;fill-rule:nonzero;stroke:none" d="m 0,0 c -0.39,0 -0.701,-0.302 -0.701,-0.674 0,-0.374 0.311,-0.676 0.701,-0.676 0.39,0 0.7,0.302 0.7,0.676 C 0.7,-0.302 0.39,0 0,0" /></g><g transform="translate(52.2691,164.1162)" id="g3985"><path inkscape:connector-curvature="0" id="path3987" style="fill:#6ed0f0;fill-opacity:1;fill-rule:nonzero;stroke:none" d="m 0,0 c -0.388,0 -0.701,-0.302 -0.701,-0.674 0,-0.374 0.313,-0.676 0.701,-0.676 0.391,0 0.7,0.302 0.7,0.676 C 0.7,-0.302 0.391,0 0,0" /></g><g transform="translate(54.9478,164.1162)" id="g3989"><path inkscape:connector-curvature="0" id="path3991" style="fill:#6ed0f0;fill-opacity:1;fill-rule:nonzero;stroke:none" d="m 0,0 c -0.388,0 -0.702,-0.302 -0.702,-0.674 0,-0.374 0.314,-0.676 0.702,-0.676 0.392,0 0.699,0.302 0.699,0.676 C 0.699,-0.302 0.392,0 0,0" /></g><g transform="translate(39.5674,160.8306)" id="g3993"><path inkscape:connector-curvature="0" id="path3995" style="fill:#6ed0f0;fill-opacity:1;fill-rule:nonzero;stroke:none" d="m 0,0 c 0,0.372 -0.307,0.673 -0.699,0.673 -0.169,0 -0.318,-0.064 -0.439,-0.161 0.041,-0.385 0.11,-0.759 0.173,-1.136 0.082,-0.032 0.172,-0.052 0.266,-0.052 C -0.307,-0.676 0,-0.372 0,0" /></g><g transform="translate(41.5493,161.5039)" id="g3997"><path inkscape:connector-curvature="0" id="path3999" style="fill:#6ed0f0;fill-opacity:1;fill-rule:nonzero;stroke:none" d="m 0,0 c -0.387,0 -0.702,-0.301 -0.702,-0.673 0,-0.373 0.315,-0.677 0.702,-0.677 0.391,0 0.7,0.304 0.7,0.677 C 0.7,-0.301 0.391,0 0,0" /></g><g transform="translate(44.229,161.5039)" id="g4001"><path inkscape:connector-curvature="0" id="path4003" style="fill:#6ed0f0;fill-opacity:1;fill-rule:nonzero;stroke:none" d="m 0,0 c -0.386,0 -0.701,-0.301 -0.701,-0.673 0,-0.373 0.315,-0.677 0.701,-0.677 0.392,0 0.699,0.304 0.699,0.677 C 0.699,-0.301 0.392,0 0,0" /></g><g transform="translate(46.9092,161.5039)" id="g4005"><path inkscape:connector-curvature="0" id="path4007" style="fill:#6ed0f0;fill-opacity:1;fill-rule:nonzero;stroke:none" d="m 0,0 c -0.389,0 -0.702,-0.301 -0.702,-0.673 0,-0.373 0.313,-0.677 0.702,-0.677 0.391,0 0.7,0.304 0.7,0.677 C 0.7,-0.301 0.391,0 0,0" /></g><g transform="translate(49.5894,161.5039)" id="g4009"><path inkscape:connector-curvature="0" id="path4011" style="fill:#6ed0f0;fill-opacity:1;fill-rule:nonzero;stroke:none" d="m 0,0 c -0.39,0 -0.701,-0.301 -0.701,-0.673 0,-0.373 0.311,-0.677 0.701,-0.677 0.39,0 0.7,0.304 0.7,0.677 C 0.7,-0.301 0.39,0 0,0" /></g><g transform="translate(52.2691,161.5039)" id="g4013"><path inkscape:connector-curvature="0" id="path4015" style="fill:#6ed0f0;fill-opacity:1;fill-rule:nonzero;stroke:none" d="m 0,0 c -0.388,0 -0.701,-0.301 -0.701,-0.673 0,-0.373 0.313,-0.677 0.701,-0.677 0.391,0 0.7,0.304 0.7,0.677 C 0.7,-0.301 0.391,0 0,0" /></g><g transform="translate(54.9478,161.5039)" id="g4017"><path inkscape:connector-curvature="0" id="path4019" style="fill:#6ed0f0;fill-opacity:1;fill-rule:nonzero;stroke:none" d="m 0,0 c -0.388,0 -0.702,-0.301 -0.702,-0.673 0,-0.373 0.314,-0.677 0.702,-0.677 0.392,0 0.699,0.304 0.699,0.677 C 0.699,-0.301 0.392,0 0,0" /></g><g transform="translate(39.5674,158.2197)" id="g4021"><path inkscape:connector-curvature="0" id="path4023" style="fill:#6ed0f0;fill-opacity:1;fill-rule:nonzero;stroke:none" d="m 0,0 c 0,0.37 -0.306,0.669 -0.695,0.671 0.101,-0.421 0.2,-0.844 0.33,-1.255 C -0.149,-0.469 0,-0.256 0,0" /></g><g transform="translate(41.5493,158.8911)" id="g4025"><path inkscape:connector-curvature="0" id="path4027" style="fill:#6ed0f0;fill-opacity:1;fill-rule:nonzero;stroke:none" d="m 0,0 c -0.387,0 -0.702,-0.299 -0.702,-0.672 0,-0.374 0.315,-0.676 0.702,-0.676 0.391,0 0.7,0.302 0.7,0.676 C 0.7,-0.299 0.391,0 0,0" /></g><g transform="translate(44.229,158.8911)" id="g4029"><path inkscape:connector-curvature="0" id="path4031" style="fill:#6ed0f0;fill-opacity:1;fill-rule:nonzero;stroke:none" d="m 0,0 c -0.386,0 -0.701,-0.299 -0.701,-0.672 0,-0.374 0.315,-0.676 0.701,-0.676 0.392,0 0.699,0.302 0.699,0.676 C 0.699,-0.299 0.392,0 0,0" /></g><g transform="translate(46.9092,158.8911)" id="g4033"><path inkscape:connector-curvature="0" id="path4035" style="fill:#6ed0f0;fill-opacity:1;fill-rule:nonzero;stroke:none" d="m 0,0 c -0.389,0 -0.702,-0.299 -0.702,-0.672 0,-0.374 0.313,-0.676 0.702,-0.676 0.391,0 0.7,0.302 0.7,0.676 C 0.7,-0.299 0.391,0 0,0" /></g><g transform="translate(49.5894,158.8911)" id="g4037"><path inkscape:connector-curvature="0" id="path4039" style="fill:#6ed0f0;fill-opacity:1;fill-rule:nonzero;stroke:none" d="m 0,0 c -0.39,0 -0.701,-0.299 -0.701,-0.672 0,-0.374 0.311,-0.676 0.701,-0.676 0.39,0 0.7,0.302 0.7,0.676 C 0.7,-0.299 0.39,0 0,0" /></g><g transform="translate(52.2691,158.8911)" id="g4041"><path inkscape:connector-curvature="0" id="path4043" style="fill:#6ed0f0;fill-opacity:1;fill-rule:nonzero;stroke:none" d="m 0,0 c -0.388,0 -0.701,-0.299 -0.701,-0.672 0,-0.374 0.313,-0.676 0.701,-0.676 0.391,0 0.7,0.302 0.7,0.676 C 0.7,-0.299 0.391,0 0,0" /></g><g transform="translate(54.9478,158.8911)" id="g4045"><path inkscape:connector-curvature="0" id="path4047" style="fill:#6ed0f0;fill-opacity:1;fill-rule:nonzero;stroke:none" d="m 0,0 c -0.388,0 -0.702,-0.299 -0.702,-0.672 0,-0.374 0.314,-0.676 0.702,-0.676 0.392,0 0.699,0.302 0.699,0.676 C 0.699,-0.299 0.392,0 0,0" /></g><g transform="translate(41.5493,156.2803)" id="g4049"><path inkscape:connector-curvature="0" id="path4051" style="fill:#6ed0f0;fill-opacity:1;fill-rule:nonzero;stroke:none" d="m 0,0 c -0.387,0 -0.702,-0.302 -0.702,-0.672 0,-0.374 0.315,-0.676 0.702,-0.676 0.391,0 0.7,0.302 0.7,0.676 C 0.7,-0.302 0.391,0 0,0" /></g><g transform="translate(44.229,156.2803)" id="g4053"><path inkscape:connector-curvature="0" id="path4055" style="fill:#6ed0f0;fill-opacity:1;fill-rule:nonzero;stroke:none" d="m 0,0 c -0.386,0 -0.701,-0.302 -0.701,-0.672 0,-0.374 0.315,-0.676 0.701,-0.676 0.392,0 0.699,0.302 0.699,0.676 C 0.699,-0.302 0.392,0 0,0" /></g><g transform="translate(46.9092,156.2803)" id="g4057"><path inkscape:connector-curvature="0" id="path4059" style="fill:#6ed0f0;fill-opacity:1;fill-rule:nonzero;stroke:none" d="m 0,0 c -0.389,0 -0.702,-0.302 -0.702,-0.672 0,-0.374 0.313,-0.676 0.702,-0.676 0.391,0 0.7,0.302 0.7,0.676 C 0.7,-0.302 0.391,0 0,0" /></g><g transform="translate(49.5894,156.2803)" id="g4061"><path inkscape:connector-curvature="0" id="path4063" style="fill:#6ed0f0;fill-opacity:1;fill-rule:nonzero;stroke:none" d="m 0,0 c -0.39,0 -0.701,-0.302 -0.701,-0.672 0,-0.374 0.311,-0.676 0.701,-0.676 0.39,0 0.7,0.302 0.7,0.676 C 0.7,-0.302 0.39,0 0,0" /></g><g transform="translate(52.2691,156.2803)" id="g4065"><path inkscape:connector-curvature="0" id="path4067" style="fill:#6ed0f0;fill-opacity:1;fill-rule:nonzero;stroke:none" d="m 0,0 c -0.388,0 -0.701,-0.302 -0.701,-0.672 0,-0.374 0.313,-0.676 0.701,-0.676 0.391,0 0.7,0.302 0.7,0.676 C 0.7,-0.302 0.391,0 0,0" /></g><g transform="translate(54.9478,156.2803)" id="g4069"><path inkscape:connector-curvature="0" id="path4071" style="fill:#6ed0f0;fill-opacity:1;fill-rule:nonzero;stroke:none" d="m 0,0 c -0.388,0 -0.702,-0.302 -0.702,-0.672 0,-0.374 0.314,-0.676 0.702,-0.676 0.392,0 0.699,0.302 0.699,0.676 C 0.699,-0.302 0.392,0 0,0" /></g><g transform="translate(42.2486,152.9942)" id="g4073"><path inkscape:connector-curvature="0" id="path4075" style="fill:#6ed0f0;fill-opacity:1;fill-rule:nonzero;stroke:none" d="m 0,0 c 0,0.373 -0.308,0.674 -0.7,0.674 -0.176,0 -0.333,-0.069 -0.457,-0.173 0.231,-0.382 0.466,-0.761 0.721,-1.126 C -0.178,-0.525 0,-0.283 0,0" /></g><g transform="translate(44.229,153.6671)" id="g4077"><path inkscape:connector-curvature="0" id="path4079" style="fill:#6ed0f0;fill-opacity:1;fill-rule:nonzero;stroke:none" d="m 0,0 c -0.386,0 -0.701,-0.301 -0.701,-0.673 0,-0.372 0.315,-0.675 0.701,-0.675 0.392,0 0.699,0.303 0.699,0.675 C 0.699,-0.301 0.392,0 0,0" /></g><g transform="translate(46.9092,153.6671)" id="g4081"><path inkscape:connector-curvature="0" id="path4083" style="fill:#6ed0f0;fill-opacity:1;fill-rule:nonzero;stroke:none" d="m 0,0 c -0.389,0 -0.702,-0.301 -0.702,-0.673 0,-0.372 0.313,-0.675 0.702,-0.675 0.391,0 0.7,0.303 0.7,0.675 C 0.7,-0.301 0.391,0 0,0" /></g><g transform="translate(49.5894,153.6671)" id="g4085"><path inkscape:connector-curvature="0" id="path4087" style="fill:#6ed0f0;fill-opacity:1;fill-rule:nonzero;stroke:none" d="m 0,0 c -0.39,0 -0.701,-0.301 -0.701,-0.673 0,-0.372 0.311,-0.675 0.701,-0.675 0.39,0 0.7,0.303 0.7,0.675 C 0.7,-0.301 0.39,0 0,0" /></g><g transform="translate(52.2691,153.6671)" id="g4089"><path inkscape:connector-curvature="0" id="path4091" style="fill:#6ed0f0;fill-opacity:1;fill-rule:nonzero;stroke:none" d="m 0,0 c -0.388,0 -0.701,-0.301 -0.701,-0.673 0,-0.372 0.313,-0.675 0.701,-0.675 0.391,0 0.7,0.303 0.7,0.675 C 0.7,-0.301 0.391,0 0,0" /></g><g transform="translate(54.9478,153.6671)" id="g4093"><path inkscape:connector-curvature="0" id="path4095" style="fill:#6ed0f0;fill-opacity:1;fill-rule:nonzero;stroke:none" d="m 0,0 c -0.388,0 -0.702,-0.301 -0.702,-0.673 0,-0.372 0.314,-0.675 0.702,-0.675 0.392,0 0.699,0.303 0.699,0.675 C 0.699,-0.301 0.392,0 0,0" /></g><g transform="translate(44.9282,150.3828)" id="g4097"><path inkscape:connector-curvature="0" id="path4099" style="fill:#6ed0f0;fill-opacity:1;fill-rule:nonzero;stroke:none" d="M 0,0 C 0,0.374 -0.307,0.673 -0.699,0.673 -1.086,0.673 -1.4,0.374 -1.4,0 c 0,-0.053 0.019,-0.1 0.031,-0.15 0.15,-0.159 0.289,-0.328 0.444,-0.481 0.071,-0.024 0.146,-0.044 0.226,-0.044 C -0.307,-0.675 0,-0.373 0,0" /></g><g transform="translate(46.9092,151.0562)" id="g4101"><path inkscape:connector-curvature="0" id="path4103" style="fill:#6ed0f0;fill-opacity:1;fill-rule:nonzero;stroke:none" d="m 0,0 c -0.389,0 -0.702,-0.299 -0.702,-0.673 0,-0.373 0.313,-0.676 0.702,-0.676 0.391,0 0.7,0.303 0.7,0.676 C 0.7,-0.299 0.391,0 0,0" /></g><g transform="translate(49.5894,151.0562)" id="g4105"><path inkscape:connector-curvature="0" id="path4107" style="fill:#6ed0f0;fill-opacity:1;fill-rule:nonzero;stroke:none" d="m 0,0 c -0.39,0 -0.701,-0.299 -0.701,-0.673 0,-0.373 0.311,-0.676 0.701,-0.676 0.39,0 0.7,0.303 0.7,0.676 C 0.7,-0.299 0.39,0 0,0" /></g><g transform="translate(52.2691,151.0562)" id="g4109"><path inkscape:connector-curvature="0" id="path4111" style="fill:#6ed0f0;fill-opacity:1;fill-rule:nonzero;stroke:none" d="m 0,0 c -0.388,0 -0.701,-0.299 -0.701,-0.673 0,-0.373 0.313,-0.676 0.701,-0.676 0.391,0 0.7,0.303 0.7,0.676 C 0.7,-0.299 0.391,0 0,0" /></g><g transform="translate(54.9478,151.0562)" id="g4113"><path inkscape:connector-curvature="0" id="path4115" style="fill:#6ed0f0;fill-opacity:1;fill-rule:nonzero;stroke:none" d="m 0,0 c -0.388,0 -0.702,-0.299 -0.702,-0.673 0,-0.373 0.314,-0.676 0.702,-0.676 0.392,0 0.699,0.303 0.699,0.676 C 0.699,-0.299 0.392,0 0,0" /></g><g transform="translate(47.6089,147.771)" id="g4117"><path inkscape:connector-curvature="0" id="path4119" style="fill:#6ed0f0;fill-opacity:1;fill-rule:nonzero;stroke:none" d="m 0,0 c 0,0.373 -0.31,0.673 -0.7,0.673 -0.351,0 -0.627,-0.25 -0.681,-0.572 0.329,-0.24 0.66,-0.472 1.002,-0.693 C -0.157,-0.478 0,-0.26 0,0" /></g><g transform="translate(49.5894,148.4444)" id="g4121"><path inkscape:connector-curvature="0" id="path4123" style="fill:#6ed0f0;fill-opacity:1;fill-rule:nonzero;stroke:none" d="m 0,0 c -0.39,0 -0.701,-0.301 -0.701,-0.673 0,-0.373 0.311,-0.676 0.701,-0.676 0.39,0 0.7,0.303 0.7,0.676 C 0.7,-0.301 0.39,0 0,0" /></g><g transform="translate(52.2691,148.4444)" id="g4125"><path inkscape:connector-curvature="0" id="path4127" style="fill:#6ed0f0;fill-opacity:1;fill-rule:nonzero;stroke:none" d="m 0,0 c -0.388,0 -0.701,-0.301 -0.701,-0.673 0,-0.373 0.313,-0.676 0.701,-0.676 0.391,0 0.7,0.303 0.7,0.676 C 0.7,-0.301 0.391,0 0,0" /></g><g transform="translate(54.9478,148.4444)" id="g4129"><path inkscape:connector-curvature="0" id="path4131" style="fill:#6ed0f0;fill-opacity:1;fill-rule:nonzero;stroke:none" d="m 0,0 c -0.388,0 -0.702,-0.301 -0.702,-0.673 0,-0.373 0.314,-0.676 0.702,-0.676 0.392,0 0.699,0.303 0.699,0.676 C 0.699,-0.301 0.392,0 0,0" /></g><g transform="translate(49.9722,145.7095)" id="g4133"><path inkscape:connector-curvature="0" id="path4135" style="fill:#6ed0f0;fill-opacity:1;fill-rule:nonzero;stroke:none" d="M 0,0 C -0.054,0.034 -0.109,0.063 -0.172,0.082 -0.114,0.056 -0.059,0.024 0,0" /></g><g transform="translate(52.2691,145.8326)" id="g4137"><path inkscape:connector-curvature="0" id="path4139" style="fill:#6ed0f0;fill-opacity:1;fill-rule:nonzero;stroke:none" d="m 0,0 c -0.388,0 -0.701,-0.301 -0.701,-0.674 0,-0.018 0.011,-0.035 0.011,-0.054 0.405,-0.133 0.82,-0.243 1.237,-0.351 C 0.636,-0.965 0.7,-0.829 0.7,-0.674 0.7,-0.301 0.391,0 0,0" /></g><g transform="translate(54.9478,145.8326)" id="g4141"><path inkscape:connector-curvature="0" id="path4143" style="fill:#6ed0f0;fill-opacity:1;fill-rule:nonzero;stroke:none" d="m 0,0 c -0.388,0 -0.702,-0.301 -0.702,-0.674 0,-0.372 0.314,-0.675 0.702,-0.675 0.392,0 0.699,0.303 0.699,0.675 C 0.699,-0.301 0.392,0 0,0" /></g><g transform="translate(57.6284,182.3994)" id="g4145"><path inkscape:connector-curvature="0" id="path4147" style="fill:#6ed0f0;fill-opacity:1;fill-rule:nonzero;stroke:none" d="m 0,0 c -0.387,0 -0.701,-0.301 -0.701,-0.674 0,-0.372 0.314,-0.676 0.701,-0.676 0.392,0 0.698,0.304 0.698,0.676 C 0.698,-0.301 0.392,0 0,0" /></g><g transform="translate(60.3086,182.3994)" id="g4149"><path inkscape:connector-curvature="0" id="path4151" style="fill:#6ed0f0;fill-opacity:1;fill-rule:nonzero;stroke:none" d="m 0,0 c -0.387,0 -0.701,-0.301 -0.701,-0.674 0,-0.372 0.314,-0.676 0.701,-0.676 0.392,0 0.699,0.304 0.699,0.676 C 0.699,-0.301 0.392,0 0,0" /></g><g transform="translate(62.9883,181.0493)" id="g4153"><path inkscape:connector-curvature="0" id="path4155" style="fill:#6ed0f0;fill-opacity:1;fill-rule:nonzero;stroke:none" d="M 0,0 C 0.393,0 0.699,0.304 0.699,0.676 0.699,0.695 0.69,0.71 0.689,0.728 0.283,0.86 -0.131,0.972 -0.548,1.08 -0.638,0.966 -0.701,0.832 -0.701,0.676 -0.701,0.304 -0.39,0 0,0" /></g><g transform="translate(65.3003,181.1651)" id="g4157"><path inkscape:connector-curvature="0" id="path4159" style="fill:#6ed0f0;fill-opacity:1;fill-rule:nonzero;stroke:none" d="M 0,0 C 0.048,-0.029 0.096,-0.055 0.148,-0.072 0.1,-0.05 0.052,-0.021 0,0" /></g><g transform="translate(57.6284,179.7867)" id="g4161"><path inkscape:connector-curvature="0" id="path4163" style="fill:#6ed0f0;fill-opacity:1;fill-rule:nonzero;stroke:none" d="m 0,0 c -0.387,0 -0.701,-0.3 -0.701,-0.673 0,-0.373 0.314,-0.675 0.701,-0.675 0.392,0 0.698,0.302 0.698,0.675 C 0.698,-0.3 0.392,0 0,0" /></g><g transform="translate(60.3086,179.7867)" id="g4165"><path inkscape:connector-curvature="0" id="path4167" style="fill:#6ed0f0;fill-opacity:1;fill-rule:nonzero;stroke:none" d="m 0,0 c -0.387,0 -0.701,-0.3 -0.701,-0.673 0,-0.373 0.314,-0.675 0.701,-0.675 0.392,0 0.699,0.302 0.699,0.675 C 0.699,-0.3 0.392,0 0,0" /></g><g transform="translate(62.9883,178.4385)" id="g4169"><path inkscape:connector-curvature="0" id="path4171" style="fill:#6ed0f0;fill-opacity:1;fill-rule:nonzero;stroke:none" d="M 0,0 C 0.393,0 0.699,0.303 0.699,0.675 0.699,1.048 0.393,1.348 0,1.348 -0.39,1.348 -0.701,1.048 -0.701,0.675 -0.701,0.303 -0.39,0 0,0" /></g><g transform="translate(65.6685,178.4385)" id="g4173"><path inkscape:connector-curvature="0" id="path4175" style="fill:#6ed0f0;fill-opacity:1;fill-rule:nonzero;stroke:none" d="M 0,0 C 0.391,0 0.699,0.303 0.699,0.675 0.699,1.048 0.391,1.348 0,1.348 -0.39,1.348 -0.7,1.048 -0.7,0.675 -0.7,0.303 -0.39,0 0,0" /></g><g transform="translate(67.648,179.1138)" id="g4177"><path inkscape:connector-curvature="0" id="path4179" style="fill:#6ed0f0;fill-opacity:1;fill-rule:nonzero;stroke:none" d="m 0,0 c 0,-0.372 0.313,-0.675 0.701,-0.675 0.351,0 0.624,0.25 0.679,0.572 C 1.052,0.136 0.721,0.369 0.378,0.588 0.154,0.477 0,0.259 0,0" /></g><g transform="translate(57.6284,177.1758)" id="g4181"><path inkscape:connector-curvature="0" id="path4183" style="fill:#6ed0f0;fill-opacity:1;fill-rule:nonzero;stroke:none" d="m 0,0 c -0.387,0 -0.701,-0.303 -0.701,-0.674 0,-0.372 0.314,-0.675 0.701,-0.675 0.392,0 0.698,0.303 0.698,0.675 C 0.698,-0.303 0.392,0 0,0" /></g><g transform="translate(60.3086,177.1758)" id="g4185"><path inkscape:connector-curvature="0" id="path4187" style="fill:#6ed0f0;fill-opacity:1;fill-rule:nonzero;stroke:none" d="m 0,0 c -0.387,0 -0.701,-0.299 -0.701,-0.674 0,-0.372 0.314,-0.675 0.701,-0.675 0.392,0 0.699,0.303 0.699,0.675 C 0.699,-0.299 0.392,0 0,0" /></g><g transform="translate(62.9883,175.8262)" id="g4189"><path inkscape:connector-curvature="0" id="path4191" style="fill:#6ed0f0;fill-opacity:1;fill-rule:nonzero;stroke:none" d="M 0,0 C 0.393,0 0.699,0.303 0.699,0.676 0.699,1.047 0.393,1.35 0,1.35 -0.39,1.35 -0.701,1.047 -0.701,0.676 -0.701,0.303 -0.39,0 0,0" /></g><g transform="translate(65.6685,175.8262)" id="g4193"><path inkscape:connector-curvature="0" id="path4195" style="fill:#6ed0f0;fill-opacity:1;fill-rule:nonzero;stroke:none" d="M 0,0 C 0.391,0 0.699,0.303 0.699,0.676 0.699,1.047 0.391,1.35 0,1.35 -0.39,1.35 -0.7,1.047 -0.7,0.676 -0.7,0.303 -0.39,0 0,0" /></g><g transform="translate(68.3491,175.8262)" id="g4197"><path inkscape:connector-curvature="0" id="path4199" style="fill:#6ed0f0;fill-opacity:1;fill-rule:nonzero;stroke:none" d="M 0,0 C 0.39,0 0.698,0.303 0.698,0.676 0.698,1.047 0.39,1.35 0,1.35 -0.389,1.35 -0.701,1.047 -0.701,0.676 -0.701,0.303 -0.389,0 0,0" /></g><g transform="translate(70.3267,176.5031)" id="g4201"><path inkscape:connector-curvature="0" id="path4203" style="fill:#6ed0f0;fill-opacity:1;fill-rule:nonzero;stroke:none" d="M 0,0 C 0,-0.373 0.314,-0.676 0.702,-0.676 1.092,-0.676 1.4,-0.373 1.4,0 1.4,0.051 1.381,0.096 1.369,0.146 1.219,0.306 1.077,0.474 0.922,0.63 0.853,0.653 0.78,0.673 0.702,0.673 0.314,0.673 0,0.37 0,0" /></g><g transform="translate(57.6284,174.564)" id="g4205"><path inkscape:connector-curvature="0" id="path4207" style="fill:#6ed0f0;fill-opacity:1;fill-rule:nonzero;stroke:none" d="m 0,0 c -0.387,0 -0.701,-0.302 -0.701,-0.674 0,-0.373 0.314,-0.676 0.701,-0.676 0.392,0 0.698,0.303 0.698,0.676 C 0.698,-0.302 0.392,0 0,0" /></g><g transform="translate(60.3086,174.564)" id="g4209"><path inkscape:connector-curvature="0" id="path4211" style="fill:#6ed0f0;fill-opacity:1;fill-rule:nonzero;stroke:none" d="m 0,0 c -0.387,0 -0.701,-0.302 -0.701,-0.674 0,-0.373 0.314,-0.676 0.701,-0.676 0.392,0 0.699,0.303 0.699,0.676 C 0.699,-0.302 0.392,0 0,0" /></g><g transform="translate(62.9883,173.2134)" id="g4213"><path inkscape:connector-curvature="0" id="path4215" style="fill:#6ed0f0;fill-opacity:1;fill-rule:nonzero;stroke:none" d="M 0,0 C 0.393,0 0.699,0.304 0.699,0.675 0.699,1.05 0.393,1.351 0,1.351 -0.39,1.351 -0.701,1.05 -0.701,0.675 -0.701,0.304 -0.39,0 0,0" /></g><g transform="translate(65.6685,173.2134)" id="g4217"><path inkscape:connector-curvature="0" id="path4219" style="fill:#6ed0f0;fill-opacity:1;fill-rule:nonzero;stroke:none" d="M 0,0 C 0.391,0 0.699,0.304 0.699,0.675 0.699,1.05 0.391,1.351 0,1.351 -0.39,1.351 -0.7,1.05 -0.7,0.675 -0.7,0.304 -0.39,0 0,0" /></g><g transform="translate(68.3491,173.2134)" id="g4221"><path inkscape:connector-curvature="0" id="path4223" style="fill:#6ed0f0;fill-opacity:1;fill-rule:nonzero;stroke:none" d="M 0,0 C 0.39,0 0.698,0.304 0.698,0.675 0.698,1.05 0.39,1.351 0,1.351 -0.389,1.351 -0.701,1.05 -0.701,0.675 -0.701,0.304 -0.389,0 0,0" /></g><g transform="translate(71.0288,173.2134)" id="g4225"><path inkscape:connector-curvature="0" id="path4227" style="fill:#6ed0f0;fill-opacity:1;fill-rule:nonzero;stroke:none" d="M 0,0 C 0.39,0 0.698,0.304 0.698,0.675 0.698,1.05 0.39,1.351 0,1.351 -0.389,1.351 -0.702,1.05 -0.702,0.675 -0.702,0.304 -0.389,0 0,0" /></g><g transform="translate(73.0044,173.8897)" id="g4229"><path inkscape:connector-curvature="0" id="path4231" style="fill:#6ed0f0;fill-opacity:1;fill-rule:nonzero;stroke:none" d="m 0,0 c 0,-0.373 0.316,-0.675 0.704,-0.675 0.177,0 0.332,0.067 0.455,0.171 C 0.929,-0.12 0.693,0.258 0.437,0.622 0.183,0.523 0,0.283 0,0" /></g><g transform="translate(57.6284,171.9527)" id="g4233"><path inkscape:connector-curvature="0" id="path4235" style="fill:#6ed0f0;fill-opacity:1;fill-rule:nonzero;stroke:none" d="m 0,0 c -0.387,0 -0.701,-0.301 -0.701,-0.674 0,-0.373 0.314,-0.675 0.701,-0.675 0.392,0 0.698,0.302 0.698,0.675 C 0.698,-0.301 0.392,0 0,0" /></g><g transform="translate(60.3086,171.9527)" id="g4237"><path inkscape:connector-curvature="0" id="path4239" style="fill:#6ed0f0;fill-opacity:1;fill-rule:nonzero;stroke:none" d="m 0,0 c -0.387,0 -0.701,-0.301 -0.701,-0.674 0,-0.373 0.314,-0.675 0.701,-0.675 0.392,0 0.699,0.302 0.699,0.675 C 0.699,-0.301 0.392,0 0,0" /></g><g transform="translate(62.9883,170.6035)" id="g4241"><path inkscape:connector-curvature="0" id="path4243" style="fill:#6ed0f0;fill-opacity:1;fill-rule:nonzero;stroke:none" d="M 0,0 C 0.393,0 0.699,0.302 0.699,0.675 0.699,1.048 0.393,1.348 0,1.348 -0.39,1.348 -0.701,1.048 -0.701,0.675 -0.701,0.302 -0.39,0 0,0" /></g><g transform="translate(65.6685,170.6035)" id="g4245"><path inkscape:connector-curvature="0" id="path4247" style="fill:#6ed0f0;fill-opacity:1;fill-rule:nonzero;stroke:none" d="M 0,0 C 0.391,0 0.699,0.302 0.699,0.675 0.699,1.048 0.391,1.348 0,1.348 -0.39,1.348 -0.7,1.048 -0.7,0.675 -0.7,0.302 -0.39,0 0,0" /></g><g transform="translate(68.3491,170.6035)" id="g4249"><path inkscape:connector-curvature="0" id="path4251" style="fill:#6ed0f0;fill-opacity:1;fill-rule:nonzero;stroke:none" d="M 0,0 C 0.39,0 0.698,0.302 0.698,0.675 0.698,1.048 0.39,1.348 0,1.348 -0.389,1.348 -0.701,1.048 -0.701,0.675 -0.701,0.302 -0.389,0 0,0" /></g><g transform="translate(71.0288,170.6035)" id="g4253"><path inkscape:connector-curvature="0" id="path4255" style="fill:#6ed0f0;fill-opacity:1;fill-rule:nonzero;stroke:none" d="M 0,0 C 0.39,0 0.698,0.302 0.698,0.675 0.698,1.048 0.39,1.348 0,1.348 -0.389,1.348 -0.702,1.048 -0.702,0.675 -0.702,0.302 -0.389,0 0,0" /></g><g transform="translate(73.7085,170.6035)" id="g4257"><path inkscape:connector-curvature="0" id="path4259" style="fill:#6ed0f0;fill-opacity:1;fill-rule:nonzero;stroke:none" d="M 0,0 C 0.391,0 0.698,0.302 0.698,0.675 0.698,1.048 0.391,1.348 0,1.348 -0.388,1.348 -0.704,1.048 -0.704,0.675 -0.704,0.302 -0.388,0 0,0" /></g><g transform="translate(57.6284,169.3399)" id="g4261"><path inkscape:connector-curvature="0" id="path4263" style="fill:#6ed0f0;fill-opacity:1;fill-rule:nonzero;stroke:none" d="m 0,0 c -0.387,0 -0.701,-0.301 -0.701,-0.674 0,-0.371 0.314,-0.674 0.701,-0.674 0.392,0 0.698,0.303 0.698,0.674 C 0.698,-0.301 0.392,0 0,0" /></g><g transform="translate(60.3086,169.3399)" id="g4265"><path inkscape:connector-curvature="0" id="path4267" style="fill:#6ed0f0;fill-opacity:1;fill-rule:nonzero;stroke:none" d="m 0,0 c -0.387,0 -0.701,-0.301 -0.701,-0.674 0,-0.371 0.314,-0.674 0.701,-0.674 0.392,0 0.699,0.303 0.699,0.674 C 0.699,-0.301 0.392,0 0,0" /></g><g transform="translate(62.9883,167.9917)" id="g4269"><path inkscape:connector-curvature="0" id="path4271" style="fill:#6ed0f0;fill-opacity:1;fill-rule:nonzero;stroke:none" d="M 0,0 C 0.393,0 0.699,0.303 0.699,0.674 0.699,1.047 0.393,1.348 0,1.348 -0.39,1.348 -0.701,1.047 -0.701,0.674 -0.701,0.303 -0.39,0 0,0" /></g><g transform="translate(65.6685,167.9917)" id="g4273"><path inkscape:connector-curvature="0" id="path4275" style="fill:#6ed0f0;fill-opacity:1;fill-rule:nonzero;stroke:none" d="M 0,0 C 0.391,0 0.699,0.303 0.699,0.674 0.699,1.047 0.391,1.348 0,1.348 -0.39,1.348 -0.7,1.047 -0.7,0.674 -0.7,0.303 -0.39,0 0,0" /></g><g transform="translate(68.3491,167.9917)" id="g4277"><path inkscape:connector-curvature="0" id="path4279" style="fill:#6ed0f0;fill-opacity:1;fill-rule:nonzero;stroke:none" d="M 0,0 C 0.39,0 0.698,0.303 0.698,0.674 0.698,1.047 0.39,1.348 0,1.348 -0.389,1.348 -0.701,1.047 -0.701,0.674 -0.701,0.303 -0.389,0 0,0" /></g><g transform="translate(71.0288,167.9917)" id="g4281"><path inkscape:connector-curvature="0" id="path4283" style="fill:#6ed0f0;fill-opacity:1;fill-rule:nonzero;stroke:none" d="M 0,0 C 0.39,0 0.698,0.303 0.698,0.674 0.698,1.047 0.39,1.348 0,1.348 -0.389,1.348 -0.702,1.047 -0.702,0.674 -0.702,0.303 -0.389,0 0,0" /></g><g transform="translate(73.7085,167.9917)" id="g4285"><path inkscape:connector-curvature="0" id="path4287" style="fill:#6ed0f0;fill-opacity:1;fill-rule:nonzero;stroke:none" d="M 0,0 C 0.391,0 0.698,0.303 0.698,0.674 0.698,1.047 0.391,1.348 0,1.348 -0.388,1.348 -0.704,1.047 -0.704,0.674 -0.704,0.303 -0.388,0 0,0" /></g><g transform="translate(75.687,168.6656)" id="g4289"><path inkscape:connector-curvature="0" id="path4291" style="fill:#6ed0f0;fill-opacity:1;fill-rule:nonzero;stroke:none" d="M 0,0 C 0,-0.369 0.309,-0.669 0.693,-0.674 0.591,-0.252 0.494,0.171 0.365,0.58 0.15,0.465 0,0.254 0,0" /></g><g transform="translate(57.6284,166.7271)" id="g4293"><path inkscape:connector-curvature="0" id="path4295" style="fill:#6ed0f0;fill-opacity:1;fill-rule:nonzero;stroke:none" d="m 0,0 c -0.387,0 -0.701,-0.3 -0.701,-0.673 0,-0.372 0.314,-0.675 0.701,-0.675 0.392,0 0.698,0.303 0.698,0.675 C 0.698,-0.3 0.392,0 0,0" /></g><g transform="translate(60.3086,166.7271)" id="g4297"><path inkscape:connector-curvature="0" id="path4299" style="fill:#6ed0f0;fill-opacity:1;fill-rule:nonzero;stroke:none" d="m 0,0 c -0.387,0 -0.701,-0.299 -0.701,-0.673 0,-0.372 0.314,-0.675 0.701,-0.675 0.392,0 0.699,0.303 0.699,0.675 C 0.699,-0.299 0.392,0 0,0" /></g><g transform="translate(62.9883,165.3789)" id="g4301"><path inkscape:connector-curvature="0" id="path4303" style="fill:#6ed0f0;fill-opacity:1;fill-rule:nonzero;stroke:none" d="M 0,0 C 0.393,0 0.699,0.303 0.699,0.675 0.699,1.048 0.393,1.348 0,1.348 -0.39,1.348 -0.701,1.048 -0.701,0.675 -0.701,0.303 -0.39,0 0,0" /></g><g transform="translate(65.6685,165.3789)" id="g4305"><path inkscape:connector-curvature="0" id="path4307" style="fill:#6ed0f0;fill-opacity:1;fill-rule:nonzero;stroke:none" d="M 0,0 C 0.391,0 0.699,0.303 0.699,0.675 0.699,1.048 0.391,1.348 0,1.348 -0.39,1.348 -0.7,1.048 -0.7,0.675 -0.7,0.303 -0.39,0 0,0" /></g><g transform="translate(68.3491,165.3789)" id="g4309"><path inkscape:connector-curvature="0" id="path4311" style="fill:#6ed0f0;fill-opacity:1;fill-rule:nonzero;stroke:none" d="M 0,0 C 0.39,0 0.698,0.303 0.698,0.675 0.698,1.048 0.39,1.348 0,1.348 -0.389,1.348 -0.701,1.048 -0.701,0.675 -0.701,0.303 -0.389,0 0,0" /></g><g transform="translate(71.0288,165.3789)" id="g4313"><path inkscape:connector-curvature="0" id="path4315" style="fill:#6ed0f0;fill-opacity:1;fill-rule:nonzero;stroke:none" d="M 0,0 C 0.39,0 0.698,0.303 0.698,0.675 0.698,1.048 0.39,1.348 0,1.348 -0.389,1.348 -0.702,1.048 -0.702,0.675 -0.702,0.303 -0.389,0 0,0" /></g><g transform="translate(73.7085,165.3789)" id="g4317"><path inkscape:connector-curvature="0" id="path4319" style="fill:#6ed0f0;fill-opacity:1;fill-rule:nonzero;stroke:none" d="M 0,0 C 0.391,0 0.698,0.303 0.698,0.675 0.698,1.048 0.391,1.348 0,1.348 -0.388,1.348 -0.704,1.048 -0.704,0.675 -0.704,0.303 -0.388,0 0,0" /></g><g transform="translate(75.687,166.0537)" id="g4321"><path inkscape:connector-curvature="0" id="path4323" style="fill:#6ed0f0;fill-opacity:1;fill-rule:nonzero;stroke:none" d="m 0,0 c 0,-0.372 0.314,-0.675 0.701,-0.675 0.169,0 0.316,0.065 0.435,0.159 C 1.095,-0.13 1.026,0.245 0.963,0.623 0.882,0.653 0.794,0.673 0.701,0.673 0.314,0.673 0,0.373 0,0" /></g><g transform="translate(57.6284,164.1162)" id="g4325"><path inkscape:connector-curvature="0" id="path4327" style="fill:#6ed0f0;fill-opacity:1;fill-rule:nonzero;stroke:none" d="m 0,0 c -0.387,0 -0.701,-0.302 -0.701,-0.674 0,-0.374 0.314,-0.676 0.701,-0.676 0.392,0 0.698,0.302 0.698,0.676 C 0.698,-0.302 0.392,0 0,0" /></g><g transform="translate(60.3086,164.1162)" id="g4329"><path inkscape:connector-curvature="0" id="path4331" style="fill:#6ed0f0;fill-opacity:1;fill-rule:nonzero;stroke:none" d="m 0,0 c -0.387,0 -0.701,-0.302 -0.701,-0.674 0,-0.372 0.314,-0.676 0.701,-0.676 0.392,0 0.699,0.304 0.699,0.676 C 0.699,-0.302 0.392,0 0,0" /></g><g transform="translate(62.9883,162.7661)" id="g4333"><path inkscape:connector-curvature="0" id="path4335" style="fill:#6ed0f0;fill-opacity:1;fill-rule:nonzero;stroke:none" d="M 0,0 C 0.393,0 0.699,0.302 0.699,0.676 0.699,1.049 0.393,1.35 0,1.35 -0.39,1.35 -0.701,1.049 -0.701,0.676 -0.701,0.302 -0.39,0 0,0" /></g><g transform="translate(65.6685,162.7661)" id="g4337"><path inkscape:connector-curvature="0" id="path4339" style="fill:#6ed0f0;fill-opacity:1;fill-rule:nonzero;stroke:none" d="M 0,0 C 0.391,0 0.699,0.302 0.699,0.676 0.699,1.049 0.391,1.35 0,1.35 -0.39,1.35 -0.7,1.049 -0.7,0.676 -0.7,0.302 -0.39,0 0,0" /></g><g transform="translate(68.3491,162.7661)" id="g4341"><path inkscape:connector-curvature="0" id="path4343" style="fill:#6ed0f0;fill-opacity:1;fill-rule:nonzero;stroke:none" d="M 0,0 C 0.39,0 0.698,0.302 0.698,0.676 0.698,1.049 0.39,1.35 0,1.35 -0.389,1.35 -0.701,1.049 -0.701,0.676 -0.701,0.302 -0.389,0 0,0" /></g><g transform="translate(71.0288,162.7661)" id="g4345"><path inkscape:connector-curvature="0" id="path4347" style="fill:#6ed0f0;fill-opacity:1;fill-rule:nonzero;stroke:none" d="M 0,0 C 0.39,0 0.698,0.302 0.698,0.676 0.698,1.049 0.39,1.35 0,1.35 -0.389,1.35 -0.702,1.049 -0.702,0.676 -0.702,0.302 -0.389,0 0,0" /></g><g transform="translate(73.7085,162.7661)" id="g4349"><path inkscape:connector-curvature="0" id="path4351" style="fill:#6ed0f0;fill-opacity:1;fill-rule:nonzero;stroke:none" d="M 0,0 C 0.391,0 0.698,0.302 0.698,0.676 0.698,1.049 0.391,1.35 0,1.35 -0.388,1.35 -0.704,1.049 -0.704,0.676 -0.704,0.302 -0.388,0 0,0" /></g><g transform="translate(76.3882,164.1162)" id="g4353"><path inkscape:connector-curvature="0" id="path4355" style="fill:#6ed0f0;fill-opacity:1;fill-rule:nonzero;stroke:none" d="m 0,0 c -0.388,0 -0.701,-0.302 -0.701,-0.674 0,-0.374 0.313,-0.676 0.701,-0.676 0.221,0 0.405,0.1 0.532,0.251 0.003,0.142 0.023,0.282 0.023,0.425 0,0.142 -0.02,0.281 -0.023,0.424 C 0.405,-0.1 0.221,0 0,0" /></g><g transform="translate(57.6284,161.5039)" id="g4357"><path inkscape:connector-curvature="0" id="path4359" style="fill:#6ed0f0;fill-opacity:1;fill-rule:nonzero;stroke:none" d="m 0,0 c -0.387,0 -0.701,-0.301 -0.701,-0.673 0,-0.373 0.314,-0.677 0.701,-0.677 0.392,0 0.698,0.304 0.698,0.677 C 0.698,-0.301 0.392,0 0,0" /></g><g transform="translate(60.3086,161.5039)" id="g4361"><path inkscape:connector-curvature="0" id="path4363" style="fill:#6ed0f0;fill-opacity:1;fill-rule:nonzero;stroke:none" d="m 0,0 c -0.387,0 -0.701,-0.301 -0.701,-0.673 0,-0.373 0.314,-0.677 0.701,-0.677 0.392,0 0.699,0.304 0.699,0.677 C 0.699,-0.301 0.392,0 0,0" /></g><g transform="translate(62.9883,160.1543)" id="g4365"><path inkscape:connector-curvature="0" id="path4367" style="fill:#6ed0f0;fill-opacity:1;fill-rule:nonzero;stroke:none" d="M 0,0 C 0.393,0 0.699,0.303 0.699,0.676 0.699,1.048 0.393,1.35 0,1.35 -0.39,1.35 -0.701,1.048 -0.701,0.676 -0.701,0.303 -0.39,0 0,0" /></g><g transform="translate(65.6685,160.1543)" id="g4369"><path inkscape:connector-curvature="0" id="path4371" style="fill:#6ed0f0;fill-opacity:1;fill-rule:nonzero;stroke:none" d="M 0,0 C 0.391,0 0.699,0.303 0.699,0.676 0.699,1.048 0.391,1.35 0,1.35 -0.39,1.35 -0.7,1.048 -0.7,0.676 -0.7,0.303 -0.39,0 0,0" /></g><g transform="translate(68.3491,160.1543)" id="g4373"><path inkscape:connector-curvature="0" id="path4375" style="fill:#6ed0f0;fill-opacity:1;fill-rule:nonzero;stroke:none" d="M 0,0 C 0.39,0 0.698,0.303 0.698,0.676 0.698,1.048 0.39,1.35 0,1.35 -0.389,1.35 -0.701,1.048 -0.701,0.676 -0.701,0.303 -0.389,0 0,0" /></g><g transform="translate(71.0288,160.1543)" id="g4377"><path inkscape:connector-curvature="0" id="path4379" style="fill:#6ed0f0;fill-opacity:1;fill-rule:nonzero;stroke:none" d="M 0,0 C 0.39,0 0.698,0.303 0.698,0.676 0.698,1.048 0.39,1.35 0,1.35 -0.389,1.35 -0.702,1.048 -0.702,0.676 -0.702,0.303 -0.389,0 0,0" /></g><g transform="translate(73.7085,160.1543)" id="g4381"><path inkscape:connector-curvature="0" id="path4383" style="fill:#6ed0f0;fill-opacity:1;fill-rule:nonzero;stroke:none" d="M 0,0 C 0.391,0 0.698,0.303 0.698,0.676 0.698,1.048 0.391,1.35 0,1.35 -0.388,1.35 -0.704,1.048 -0.704,0.676 -0.704,0.303 -0.388,0 0,0" /></g><g transform="translate(75.687,160.8306)" id="g4385"><path inkscape:connector-curvature="0" id="path4387" style="fill:#6ed0f0;fill-opacity:1;fill-rule:nonzero;stroke:none" d="m 0,0 c 0,-0.372 0.314,-0.676 0.701,-0.676 0.093,0 0.181,0.02 0.262,0.051 0.063,0.378 0.132,0.754 0.173,1.14 C 1.017,0.61 0.87,0.673 0.701,0.673 0.314,0.673 0,0.372 0,0" /></g><g transform="translate(57.6284,158.8911)" id="g4389"><path inkscape:connector-curvature="0" id="path4391" style="fill:#6ed0f0;fill-opacity:1;fill-rule:nonzero;stroke:none" d="m 0,0 c -0.387,0 -0.701,-0.299 -0.701,-0.672 0,-0.374 0.314,-0.676 0.701,-0.676 0.392,0 0.698,0.302 0.698,0.676 C 0.698,-0.299 0.392,0 0,0" /></g><g transform="translate(60.3086,158.8911)" id="g4393"><path inkscape:connector-curvature="0" id="path4395" style="fill:#6ed0f0;fill-opacity:1;fill-rule:nonzero;stroke:none" d="m 0,0 c -0.387,0 -0.701,-0.299 -0.701,-0.672 0,-0.374 0.314,-0.676 0.701,-0.676 0.392,0 0.699,0.302 0.699,0.676 C 0.699,-0.299 0.392,0 0,0" /></g><g transform="translate(62.9883,157.5445)" id="g4397"><path inkscape:connector-curvature="0" id="path4399" style="fill:#6ed0f0;fill-opacity:1;fill-rule:nonzero;stroke:none" d="M 0,0 C 0.393,0 0.699,0.302 0.699,0.674 0.699,1.046 0.393,1.347 0,1.347 -0.39,1.347 -0.701,1.046 -0.701,0.674 -0.701,0.302 -0.39,0 0,0" /></g><g transform="translate(65.6685,157.5445)" id="g4401"><path inkscape:connector-curvature="0" id="path4403" style="fill:#6ed0f0;fill-opacity:1;fill-rule:nonzero;stroke:none" d="M 0,0 C 0.391,0 0.699,0.302 0.699,0.674 0.699,1.046 0.391,1.347 0,1.347 -0.39,1.347 -0.7,1.046 -0.7,0.674 -0.7,0.302 -0.39,0 0,0" /></g><g transform="translate(68.3491,157.5445)" id="g4405"><path inkscape:connector-curvature="0" id="path4407" style="fill:#6ed0f0;fill-opacity:1;fill-rule:nonzero;stroke:none" d="M 0,0 C 0.39,0 0.698,0.302 0.698,0.674 0.698,1.046 0.39,1.347 0,1.347 -0.389,1.347 -0.701,1.046 -0.701,0.674 -0.701,0.302 -0.389,0 0,0" /></g><g transform="translate(71.0288,157.5445)" id="g4409"><path inkscape:connector-curvature="0" id="path4411" style="fill:#6ed0f0;fill-opacity:1;fill-rule:nonzero;stroke:none" d="M 0,0 C 0.39,0 0.698,0.302 0.698,0.674 0.698,1.046 0.39,1.347 0,1.347 -0.389,1.347 -0.702,1.046 -0.702,0.674 -0.702,0.302 -0.389,0 0,0" /></g><g transform="translate(73.7085,157.5445)" id="g4413"><path inkscape:connector-curvature="0" id="path4415" style="fill:#6ed0f0;fill-opacity:1;fill-rule:nonzero;stroke:none" d="M 0,0 C 0.391,0 0.698,0.302 0.698,0.674 0.698,1.046 0.391,1.347 0,1.347 -0.388,1.347 -0.704,1.046 -0.704,0.674 -0.704,0.302 -0.388,0 0,0" /></g><g transform="translate(75.687,158.2197)" id="g4417"><path inkscape:connector-curvature="0" id="path4419" style="fill:#6ed0f0;fill-opacity:1;fill-rule:nonzero;stroke:none" d="M 0,0 C 0,-0.253 0.15,-0.467 0.365,-0.581 0.494,-0.171 0.591,0.25 0.693,0.671 0.309,0.667 0,0.369 0,0" /></g><g transform="translate(57.6284,156.2803)" id="g4421"><path inkscape:connector-curvature="0" id="path4423" style="fill:#6ed0f0;fill-opacity:1;fill-rule:nonzero;stroke:none" d="m 0,0 c -0.387,0 -0.701,-0.302 -0.701,-0.672 0,-0.374 0.314,-0.676 0.701,-0.676 0.392,0 0.698,0.302 0.698,0.676 C 0.698,-0.302 0.392,0 0,0" /></g><g transform="translate(60.3086,156.2803)" id="g4425"><path inkscape:connector-curvature="0" id="path4427" style="fill:#6ed0f0;fill-opacity:1;fill-rule:nonzero;stroke:none" d="m 0,0 c -0.387,0 -0.701,-0.302 -0.701,-0.672 0,-0.374 0.314,-0.676 0.701,-0.676 0.392,0 0.699,0.302 0.699,0.676 C 0.699,-0.302 0.392,0 0,0" /></g><g transform="translate(62.9883,154.9323)" id="g4429"><path inkscape:connector-curvature="0" id="path4431" style="fill:#6ed0f0;fill-opacity:1;fill-rule:nonzero;stroke:none" d="M 0,0 C 0.393,0 0.699,0.302 0.699,0.676 0.699,1.047 0.393,1.349 0,1.349 -0.39,1.349 -0.701,1.047 -0.701,0.676 -0.701,0.302 -0.39,0 0,0" /></g><g transform="translate(65.6685,154.9323)" id="g4433"><path inkscape:connector-curvature="0" id="path4435" style="fill:#6ed0f0;fill-opacity:1;fill-rule:nonzero;stroke:none" d="M 0,0 C 0.391,0 0.699,0.302 0.699,0.676 0.699,1.047 0.391,1.349 0,1.349 -0.39,1.349 -0.7,1.047 -0.7,0.676 -0.7,0.302 -0.39,0 0,0" /></g><g transform="translate(68.3491,154.9323)" id="g4437"><path inkscape:connector-curvature="0" id="path4439" style="fill:#6ed0f0;fill-opacity:1;fill-rule:nonzero;stroke:none" d="M 0,0 C 0.39,0 0.698,0.302 0.698,0.676 0.698,1.047 0.39,1.349 0,1.349 -0.389,1.349 -0.701,1.047 -0.701,0.676 -0.701,0.302 -0.389,0 0,0" /></g><g transform="translate(71.0288,154.9323)" id="g4441"><path inkscape:connector-curvature="0" id="path4443" style="fill:#6ed0f0;fill-opacity:1;fill-rule:nonzero;stroke:none" d="M 0,0 C 0.39,0 0.698,0.302 0.698,0.676 0.698,1.047 0.39,1.349 0,1.349 -0.389,1.349 -0.702,1.047 -0.702,0.676 -0.702,0.302 -0.389,0 0,0" /></g><g transform="translate(73.7085,154.9323)" id="g4445"><path inkscape:connector-curvature="0" id="path4447" style="fill:#6ed0f0;fill-opacity:1;fill-rule:nonzero;stroke:none" d="M 0,0 C 0.391,0 0.698,0.302 0.698,0.676 0.698,1.047 0.391,1.349 0,1.349 -0.388,1.349 -0.704,1.047 -0.704,0.676 -0.704,0.302 -0.388,0 0,0" /></g><g transform="translate(57.6284,153.6671)" id="g4449"><path inkscape:connector-curvature="0" id="path4451" style="fill:#6ed0f0;fill-opacity:1;fill-rule:nonzero;stroke:none" d="m 0,0 c -0.387,0 -0.701,-0.301 -0.701,-0.673 0,-0.372 0.314,-0.675 0.701,-0.675 0.392,0 0.698,0.303 0.698,0.675 C 0.698,-0.301 0.392,0 0,0" /></g><g transform="translate(60.3086,153.6671)" id="g4453"><path inkscape:connector-curvature="0" id="path4455" style="fill:#6ed0f0;fill-opacity:1;fill-rule:nonzero;stroke:none" d="m 0,0 c -0.387,0 -0.701,-0.301 -0.701,-0.673 0,-0.372 0.314,-0.675 0.701,-0.675 0.392,0 0.699,0.303 0.699,0.675 C 0.699,-0.301 0.392,0 0,0" /></g><g transform="translate(62.9883,152.3189)" id="g4457"><path inkscape:connector-curvature="0" id="path4459" style="fill:#6ed0f0;fill-opacity:1;fill-rule:nonzero;stroke:none" d="M 0,0 C 0.393,0 0.699,0.303 0.699,0.674 0.699,1.048 0.393,1.348 0,1.348 -0.39,1.348 -0.701,1.048 -0.701,0.674 -0.701,0.303 -0.39,0 0,0" /></g><g transform="translate(65.6685,152.3189)" id="g4461"><path inkscape:connector-curvature="0" id="path4463" style="fill:#6ed0f0;fill-opacity:1;fill-rule:nonzero;stroke:none" d="M 0,0 C 0.391,0 0.699,0.303 0.699,0.674 0.699,1.048 0.391,1.348 0,1.348 -0.39,1.348 -0.7,1.048 -0.7,0.674 -0.7,0.303 -0.39,0 0,0" /></g><g transform="translate(68.3491,152.3189)" id="g4465"><path inkscape:connector-curvature="0" id="path4467" style="fill:#6ed0f0;fill-opacity:1;fill-rule:nonzero;stroke:none" d="M 0,0 C 0.39,0 0.698,0.303 0.698,0.674 0.698,1.048 0.39,1.348 0,1.348 -0.389,1.348 -0.701,1.048 -0.701,0.674 -0.701,0.303 -0.389,0 0,0" /></g><g transform="translate(71.0288,152.3189)" id="g4469"><path inkscape:connector-curvature="0" id="path4471" style="fill:#6ed0f0;fill-opacity:1;fill-rule:nonzero;stroke:none" d="M 0,0 C 0.39,0 0.698,0.303 0.698,0.674 0.698,1.048 0.39,1.348 0,1.348 -0.389,1.348 -0.702,1.048 -0.702,0.674 -0.702,0.303 -0.389,0 0,0" /></g><g transform="translate(73.0044,152.9942)" id="g4473"><path inkscape:connector-curvature="0" id="path4475" style="fill:#6ed0f0;fill-opacity:1;fill-rule:nonzero;stroke:none" d="M 0,0 C 0,-0.282 0.183,-0.523 0.437,-0.625 0.693,-0.258 0.929,0.121 1.159,0.503 1.036,0.605 0.881,0.674 0.704,0.674 0.316,0.674 0,0.373 0,0" /></g><g transform="translate(57.6284,151.0562)" id="g4477"><path inkscape:connector-curvature="0" id="path4479" style="fill:#6ed0f0;fill-opacity:1;fill-rule:nonzero;stroke:none" d="m 0,0 c -0.387,0 -0.701,-0.299 -0.701,-0.673 0,-0.373 0.314,-0.676 0.701,-0.676 0.392,0 0.698,0.303 0.698,0.676 C 0.698,-0.299 0.392,0 0,0" /></g><g transform="translate(60.3086,151.0562)" id="g4481"><path inkscape:connector-curvature="0" id="path4483" style="fill:#6ed0f0;fill-opacity:1;fill-rule:nonzero;stroke:none" d="m 0,0 c -0.387,0 -0.701,-0.299 -0.701,-0.673 0,-0.373 0.314,-0.676 0.701,-0.676 0.392,0 0.699,0.303 0.699,0.676 C 0.699,-0.299 0.392,0 0,0" /></g><g transform="translate(62.9883,149.7076)" id="g4485"><path inkscape:connector-curvature="0" id="path4487" style="fill:#6ed0f0;fill-opacity:1;fill-rule:nonzero;stroke:none" d="M 0,0 C 0.393,0 0.699,0.302 0.699,0.675 0.699,1.05 0.393,1.349 0,1.349 -0.39,1.349 -0.701,1.05 -0.701,0.675 -0.701,0.302 -0.39,0 0,0" /></g><g transform="translate(65.6685,149.7076)" id="g4489"><path inkscape:connector-curvature="0" id="path4491" style="fill:#6ed0f0;fill-opacity:1;fill-rule:nonzero;stroke:none" d="M 0,0 C 0.391,0 0.699,0.302 0.699,0.675 0.699,1.05 0.391,1.349 0,1.349 -0.39,1.349 -0.7,1.05 -0.7,0.675 -0.7,0.302 -0.39,0 0,0" /></g><g transform="translate(68.3491,149.7076)" id="g4493"><path inkscape:connector-curvature="0" id="path4495" style="fill:#6ed0f0;fill-opacity:1;fill-rule:nonzero;stroke:none" d="M 0,0 C 0.39,0 0.698,0.302 0.698,0.675 0.698,1.05 0.39,1.349 0,1.349 -0.389,1.349 -0.701,1.05 -0.701,0.675 -0.701,0.302 -0.389,0 0,0" /></g><g transform="translate(71.0288,151.0562)" id="g4497"><path inkscape:connector-curvature="0" id="path4499" style="fill:#6ed0f0;fill-opacity:1;fill-rule:nonzero;stroke:none" d="m 0,0 c -0.389,0 -0.702,-0.299 -0.702,-0.673 0,-0.373 0.313,-0.676 0.702,-0.676 0.078,0 0.15,0.02 0.221,0.043 0.154,0.155 0.295,0.324 0.445,0.483 0.012,0.051 0.032,0.098 0.032,0.15 C 0.698,-0.299 0.39,0 0,0" /></g><g transform="translate(57.6284,148.4444)" id="g4501"><path inkscape:connector-curvature="0" id="path4503" style="fill:#6ed0f0;fill-opacity:1;fill-rule:nonzero;stroke:none" d="m 0,0 c -0.387,0 -0.701,-0.301 -0.701,-0.673 0,-0.373 0.314,-0.676 0.701,-0.676 0.392,0 0.698,0.303 0.698,0.676 C 0.698,-0.301 0.392,0 0,0" /></g><g transform="translate(60.3086,148.4444)" id="g4505"><path inkscape:connector-curvature="0" id="path4507" style="fill:#6ed0f0;fill-opacity:1;fill-rule:nonzero;stroke:none" d="m 0,0 c -0.387,0 -0.701,-0.301 -0.701,-0.673 0,-0.373 0.314,-0.676 0.701,-0.676 0.392,0 0.699,0.303 0.699,0.676 C 0.699,-0.301 0.392,0 0,0" /></g><g transform="translate(62.9883,147.0957)" id="g4509"><path inkscape:connector-curvature="0" id="path4511" style="fill:#6ed0f0;fill-opacity:1;fill-rule:nonzero;stroke:none" d="M 0,0 C 0.393,0 0.699,0.303 0.699,0.675 0.699,1.048 0.393,1.349 0,1.349 -0.39,1.349 -0.701,1.048 -0.701,0.675 -0.701,0.303 -0.39,0 0,0" /></g><g transform="translate(65.6685,147.0957)" id="g4513"><path inkscape:connector-curvature="0" id="path4515" style="fill:#6ed0f0;fill-opacity:1;fill-rule:nonzero;stroke:none" d="M 0,0 C 0.391,0 0.699,0.303 0.699,0.675 0.699,1.048 0.391,1.349 0,1.349 -0.39,1.349 -0.7,1.048 -0.7,0.675 -0.7,0.303 -0.39,0 0,0" /></g><g transform="translate(68.3491,148.4444)" id="g4517"><path inkscape:connector-curvature="0" id="path4519" style="fill:#6ed0f0;fill-opacity:1;fill-rule:nonzero;stroke:none" d="m 0,0 c -0.389,0 -0.701,-0.301 -0.701,-0.673 0,-0.259 0.154,-0.476 0.378,-0.59 0.343,0.219 0.674,0.452 1.002,0.691 C 0.625,-0.25 0.353,0 0,0" /></g><g transform="translate(57.6284,145.8326)" id="g4521"><path inkscape:connector-curvature="0" id="path4523" style="fill:#6ed0f0;fill-opacity:1;fill-rule:nonzero;stroke:none" d="m 0,0 c -0.387,0 -0.701,-0.301 -0.701,-0.674 0,-0.372 0.314,-0.675 0.701,-0.675 0.392,0 0.698,0.303 0.698,0.675 C 0.698,-0.301 0.392,0 0,0" /></g><g transform="translate(60.3086,145.8326)" id="g4525"><path inkscape:connector-curvature="0" id="path4527" style="fill:#6ed0f0;fill-opacity:1;fill-rule:nonzero;stroke:none" d="m 0,0 c -0.387,0 -0.701,-0.301 -0.701,-0.674 0,-0.372 0.314,-0.675 0.701,-0.675 0.392,0 0.699,0.303 0.699,0.675 C 0.699,-0.301 0.392,0 0,0" /></g><g transform="translate(62.9883,145.8326)" id="g4529"><path inkscape:connector-curvature="0" id="path4531" style="fill:#6ed0f0;fill-opacity:1;fill-rule:nonzero;stroke:none" d="m 0,0 c -0.39,0 -0.701,-0.301 -0.701,-0.674 0,-0.155 0.063,-0.29 0.154,-0.404 0.416,0.107 0.83,0.217 1.236,0.351 0.001,0.018 0.01,0.035 0.01,0.053 C 0.699,-0.301 0.393,0 0,0" /></g><g transform="translate(65.4497,145.7906)" id="g4533"><path inkscape:connector-curvature="0" id="path4535" style="fill:#6ed0f0;fill-opacity:1;fill-rule:nonzero;stroke:none" d="M 0,0 C -0.056,-0.019 -0.104,-0.045 -0.152,-0.073 -0.1,-0.052 -0.052,-0.023 0,0" /></g></g><text transform="matrix(1,0,0,-1,115.3753,104.4703)" id="text4537" inkscape:export-filename="E:\ZManager\PSIG\Marca\Versio_4\logo_PSIG_horitzontal_v4_transparent.png" inkscape:export-xdpi="200" inkscape:export-ydpi="200"><tspan style="fill:#57525a;fill-opacity:1;fill-rule:nonzero;stroke:none;font-family:Gandhi Sans;font-variant:normal;font-weight:normal;font-stretch:normal;font-size:10;writing-mode:lr;-inkscape-font-specification:GandhiSans-Regular" x="0 2.42 10.66 16.01 18.17 23.08 31.32 36.23 41.57 45.23 49.76 54.41 56.57 61.75 64.17 66.39 71.74 76.65 80.61 84.27 86.43 91.81 94.03 96.19 98.41 101.42 106.8 110.36 118.6 123.13 127.78 129.94 135.32 137.54 142.48 144.9" y="0" sodipodi:role="line" id="tspan4539">Implementació, gestió i formació SIG</tspan></text>



</g></svg>