<?xml version="1.0" encoding="UTF-8" standalone="no"?>
<!DOCTYPE svg PUBLIC "-//W3C//DTD SVG 1.1//EN" "http://www.w3.org/Graphics/SVG/1.1/DTD/svg11.dtd">
<svg width="100%" height="100%" viewBox="0 0 1871 627" version="1.1" xmlns="http://www.w3.org/2000/svg" xmlns:xlink="http://www.w3.org/1999/xlink" xml:space="preserve" xmlns:serif="http://www.serif.com/" style="fill-rule:evenodd;clip-rule:evenodd;stroke-linecap:square;stroke-miterlimit:3;">
    <g transform="matrix(1,0,0,1,-10393,-6445)">
        <g transform="matrix(8.33333,0,0,8.33333,7798.34,5882.73)">
            <g transform="matrix(0.596269,0.802785,0.802785,-0.596269,326.787,81.6534)">
                <path d="M3.714,-15.263L19.737,-15.263L34.366,4.4L9.724,1.224L3.714,-15.263Z" style="fill:none;fill-rule:nonzero;stroke:rgb(94,64,65);stroke-width:0.68px;"/>
            </g>
            <g transform="matrix(0.300293,-0.953847,-0.953847,-0.300293,338.978,98.3085)">
                <path d="M7.511,8.037L23.955,8.037L19.507,-7.547L-4.373,-13.781L7.511,8.037" style="fill:none;fill-rule:nonzero;stroke:rgb(94,64,65);stroke-width:0.68px;"/>
            </g>
            <g transform="matrix(0.883231,-0.468938,-0.468938,-0.883231,349.008,86.7274)">
                <path d="M4.906,2.783L21.394,2.783L16.095,-13.05L-7.735,-18.413L4.906,2.783Z" style="fill:none;fill-rule:nonzero;stroke:rgb(94,64,65);stroke-width:0.68px;"/>
            </g>
            <g transform="matrix(0.758701,-0.651438,-0.651438,-0.758701,359.797,115.382)">
                <path d="M-1.109,12.504L23.317,12.504L30.786,-0.465L15.806,-2.566L-1.109,12.504" style="fill:none;fill-rule:nonzero;stroke:rgb(94,64,65);stroke-width:0.68px;"/>
            </g>
            <g transform="matrix(1,0,0,1,350.81,136.387)">
                <path d="M0,-29.769L-1.008,-7.54L-13.051,0.02L-17.53,-14.701L0,-29.769L14.147,-13.793L28.979,-16.758L22.651,-29.354L0,-29.769L-1.008,-7.54L11.088,-0.443L14.239,-13.888L0,-29.769L-17.445,-14.731L-31.927,-16.171L-24.508,-29.789L0,-29.769" style="fill:none;fill-rule:nonzero;stroke:rgb(94,64,65);stroke-width:0.68px;"/>
            </g>
            <g transform="matrix(0.470936,-0.882168,-0.882168,-0.470936,332.005,126.88)">
                <path d="M2.68,12.761L13.433,12.761L22.852,-3.628L6.339,2.116L2.68,12.761Z" style="fill:rgb(175,185,152);fill-rule:nonzero;stroke:rgb(94,64,65);stroke-width:0.68px;"/>
            </g>
            <g transform="matrix(1,0,0,1,327.423,100.305)">
                <path d="M0,-4.428L-1.134,-1.405L-2.467,-4.127L2.5,-5.416C2.5,-5.416 2.325,-3.864 1.024,-1.221C-0.275,1.423 -1.422,2.39 -1.422,2.39L-6.769,-5.506C-6.769,-5.506 -4.799,-5.792 -0.417,-7.109C3.965,-8.424 4.752,-8.749 4.752,-8.749C4.752,-8.749 4.69,-3.838 3.534,-1.305C2.406,1.168 0.226,4.185 0.226,4.185C0.226,4.185 3.349,3.622 8.705,3.755C15.511,3.924 18.232,4.321 18.232,4.321L6.72,-7.137C6.72,-7.137 7.16,-4.019 6.423,-2.05C5.504,0.4 4.384,1.678 4.384,1.678L13.394,1.993L8.817,-1.804L8.155,-0.207L10.275,-0.22" style="fill:none;fill-rule:nonzero;stroke:rgb(94,64,65);stroke-width:0.68px;"/>
            </g>
            <g transform="matrix(1,0,0,1,340.989,114.303)">
                <path d="M0,13.33L1.712,13.922L-1.017,15.448L-2.448,11.412C-2.448,11.412 -0.429,10.39 2.215,11.689C4.857,12.99 5.234,14.246 5.234,14.246L-2.059,18.834C-2.059,18.834 -2.35,17.512 -3.674,13.132C-4.465,10.512 -5.322,9.462 -5.322,9.462C-5.322,9.462 -3.011,7.729 1.318,9.653C5.929,11.702 6.556,12.928 6.556,12.928C6.556,12.928 6.663,13.522 7.19,4.01C7.717,-5.504 7.653,-3.426 7.653,-3.426L-3.176,6.61C-3.176,6.61 -0.83,5.819 1.563,6.877C3.958,7.934 5.157,8.906 5.157,8.906L5.271,1.392L1.156,5.015L3.527,5.527L3.026,4.024L2.885,3.625" style="fill:none;fill-rule:nonzero;stroke:rgb(94,64,65);stroke-width:0.68px;"/>
            </g>
            <g transform="matrix(1,0,0,1,363.159,96.5646)">
                <path d="M0,-12.718L-3.07,-14.446L-0.251,-15.562L0.644,-10.509C0.644,-10.509 -0.891,-10.805 -3.423,-12.31C-5.956,-13.814 -6.499,-14.527 -6.499,-14.527L1.378,-18.523C1.378,-18.523 1.593,-17.756 2.56,-13.284C3.527,-8.813 3.789,-8.002 3.789,-8.002C3.789,-8.002 1.354,-6.727 -3.537,-9.801C-5.863,-11.263 -9.065,-13.209 -9.065,-13.209C-9.065,-13.209 -8.937,-10.746 -9.355,-5.097C-10.164,5.805 -10.194,5.788 -10.194,5.788L2.033,-5.956C2.033,-5.956 -1.445,-6.178 -3.021,-6.864C-5.419,-7.908 -6.637,-8.532 -6.637,-8.532L-7.55,0.567L-2.539,-4.614L-4.993,-5.281L-4.595,-3.064" style="fill:none;fill-rule:nonzero;stroke:rgb(94,64,65);stroke-width:0.68px;"/>
            </g>
            <g transform="matrix(1,0,0,1,371.077,113.467)">
                <path d="M0,1.847L1.187,0.1L2.722,3.181L-2.36,4.32C-2.36,4.32 -2.228,2.185 -1.365,0.65C-0.415,-1.041 1.853,-2.47 1.853,-2.47L6.209,4.829C6.209,4.829 3.271,5.137 0.299,5.721C-2.005,6.173 -5.068,6.722 -5.068,6.722C-5.068,6.722 -5.134,4.472 -3.514,0.648C-1.827,-3.335 1.313,-4.875 1.313,-4.875C1.313,-4.875 -1.816,-4.793 -8.137,-4.627L-15.631,-4.341L-6.768,5.096C-6.768,5.096 -6.871,2.635 -5.629,0.331C-4.387,-1.972 -3.49,-3.021 -3.49,-3.021L-11.442,-2.588L-7.689,1.06L-6.708,-1.212L-8.948,-0.664" style="fill:none;fill-rule:nonzero;stroke:rgb(94,64,65);stroke-width:0.68px;"/>
            </g>
            <g transform="matrix(0.738045,-0.674752,-0.674752,-0.738045,362.383,111.758)">
                <path d="M-0.931,9.888L17.554,9.888L23.334,0.063L11.533,-1.76L-0.931,9.888Z" style="fill:rgb(175,185,152);fill-rule:nonzero;stroke:rgb(94,64,65);stroke-width:0.68px;"/>
            </g>
            <g transform="matrix(0.0220352,0.999757,0.999757,-0.0220352,367.816,116.252)">
                <path d="M-5.487,-15.377L11.032,-15.377L15.659,-8.375L5.965,-5.394L-5.487,-15.377Z" style="fill:rgb(205,123,61);fill-rule:nonzero;stroke:rgb(94,64,65);stroke-width:0.68px;"/>
            </g>
            <g transform="matrix(-0.213099,0.977031,0.977031,0.213099,357.009,88.168)">
                <path d="M-8.309,-20.024L4.962,-20.024L15.665,-4.57L-3.691,-8.12L-8.309,-20.024Z" style="fill:rgb(205,123,61);fill-rule:nonzero;stroke:rgb(94,64,65);stroke-width:0.68px;"/>
            </g>
            <g transform="matrix(1,0,0,1,320.574,76.2704)">
                <path d="M0,13.544L11.228,10.772L13.956,0L12.424,2.188L9.438,2.018L8.439,5.299L6.267,5.225L5.447,8.455L2.81,9.429L2.521,12.405L0,13.544Z" style="fill:rgb(93,52,41);fill-rule:nonzero;stroke:rgb(93,52,41);stroke-width:0.68px;"/>
            </g>
            <g transform="matrix(1,0,0,1,340.077,132.828)">
                <path d="M0,4.756L9.832,-1.335L19.441,4.244L16.807,3.811L14.841,6.065L11.796,4.485L10.329,6.091L7.447,4.418L4.907,5.623L2.577,3.749L0,4.756Z" style="fill:rgb(93,52,41);fill-rule:nonzero;stroke:rgb(93,52,41);stroke-width:0.68px;"/>
            </g>
            <g transform="matrix(1,0,0,1,362.136,76.9098)">
                <path d="M0,-3.28L-10.182,2.204L-19.436,-3.946L-16.832,-3.354L-14.733,-5.484L-11.79,-3.723L-10.229,-5.237L-7.453,-3.393L-4.846,-4.443L-2.633,-2.431L0,-3.28Z" style="fill:rgb(93,52,41);fill-rule:nonzero;stroke:rgb(93,52,41);stroke-width:0.68px;"/>
            </g>
            <g transform="matrix(1,0,0,1,378.323,135.439)">
                <path d="M0,-13.544L-11.229,-10.772L-13.956,0L-12.425,-2.188L-9.439,-2.019L-8.44,-5.299L-6.267,-5.226L-5.447,-8.455L-2.811,-9.429L-2.521,-12.405L0,-13.544Z" style="fill:rgb(93,52,41);fill-rule:nonzero;stroke:rgb(93,52,41);stroke-width:0.68px;"/>
            </g>
            <g transform="matrix(1,0,0,1,316.791,117.095)">
                <path d="M0,-19.39L6.583,-9.881L1.5,0L1.799,-2.654L-0.552,-4.502L0.87,-7.623L-0.808,-9.006L0.716,-11.969L-0.617,-14.445L1.136,-16.868L0,-19.39Z" style="fill:rgb(93,52,41);fill-rule:nonzero;stroke:rgb(93,52,41);stroke-width:0.68px;"/>
            </g>
            <g transform="matrix(1,0,0,1,335.248,122.357)">
                <path d="M0,12.384L-3.989,1.529L-14.995,0L-12.653,1.282L-12.493,4.269L-9.123,4.902L-8.957,7.07L-5.657,7.529L-4.399,10.043L-1.409,10.004L0,12.384Z" style="fill:rgb(93,52,41);fill-rule:nonzero;stroke:rgb(93,52,41);stroke-width:0.68px;"/>
            </g>
            <g transform="matrix(1,0,0,1,370.001,92.9489)">
                <path d="M0,-15.449L1.435,-3.973L11.812,0L9.819,-1.777L10.338,-4.722L7.197,-6.099L7.525,-8.25L4.414,-9.442L3.757,-12.176L0.835,-12.812L0,-15.449Z" style="fill:rgb(93,52,41);fill-rule:nonzero;stroke:rgb(93,52,41);stroke-width:0.68px;"/>
            </g>
            <g transform="matrix(1,0,0,1,381.263,98.6147)">
                <path d="M0,19.354L-4.827,8.845L1.898,0L1.143,2.561L3.135,4.791L1.191,7.616L2.603,9.27L0.587,11.923L1.469,14.592L-0.68,16.673L0,19.354Z" style="fill:rgb(93,52,41);fill-rule:nonzero;stroke:rgb(93,52,41);stroke-width:0.68px;"/>
            </g>
            <g transform="matrix(1,0,0,1,327.028,113.824)">
                <path d="M0,0.778C0,0.778 -0.475,0.122 -0.77,0.36C-1.064,0.598 -1.925,1.211 -1.437,1.846C-0.95,2.481 -0.173,3.494 0.251,3.428C0.674,3.364 1.758,2.518 2.385,1.956C3.012,1.393 3.617,0.182 4.269,-0.058C4.919,-0.297 6.872,-0.781 7.132,-1.062C7.393,-1.344 7.903,-2.313 8.57,-2.55C9.278,-2.716 9.989,-2.374 10.169,-1.748C10.348,-1.122 9.843,-0.654 9.395,-0.519C8.946,-0.385 8.076,-0.615 7.791,-1.076C7.506,-1.537 7.598,-1.491 7.598,-1.491" style="fill:none;fill-rule:nonzero;stroke:rgb(94,64,65);stroke-width:0.68px;"/>
            </g>
            <g transform="matrix(1,0,0,1,328.548,118.669)">
                <path d="M0,-2.172C0,-2.172 0.333,-1.61 0.319,-1.109C0.306,-0.608 0.329,0 0.329,0" style="fill:none;fill-rule:nonzero;stroke:rgb(94,64,65);stroke-width:0.68px;"/>
            </g>
            <g transform="matrix(1,0,0,1,329.413,118.032)">
                <path d="M0,-2.252C0,-2.252 0.51,-1.817 0.66,-1.394C0.81,-0.971 1.154,0 1.154,0" style="fill:none;fill-rule:nonzero;stroke:rgb(94,64,65);stroke-width:0.68px;"/>
            </g>
            <g transform="matrix(0.348853,0.937177,0.937177,-0.348853,332.712,114.129)">
                <path d="M-0.833,-1.199L1.726,-1.2" style="fill:none;fill-rule:nonzero;stroke:rgb(94,64,65);stroke-width:0.68px;"/>
            </g>
            <g transform="matrix(0.580057,0.814576,0.814576,-0.580057,333.787,113.173)">
                <path d="M-0.488,-0.947L1.836,-0.947" style="fill:none;fill-rule:nonzero;stroke:rgb(94,64,65);stroke-width:0.68px;"/>
            </g>
            <g transform="matrix(1,0,0,1,326.417,110.49)">
                <path d="M0,1.494C0,1.494 1.393,1.633 1.881,1.832C2.368,2.031 2.749,2.568 2.749,2.568C2.749,2.568 3.75,1.649 4.569,1.245C5.389,0.841 6.252,0.601 6.252,0.601C6.252,0.601 6.092,-0.413 5.608,-0.743C5.124,-1.072 4.481,-1.074 4.481,-1.074C4.481,-1.074 3.084,-1.053 2.619,-0.781C2.154,-0.511 1.739,-0.279 1.739,-0.279" style="fill:none;fill-rule:nonzero;stroke:rgb(94,64,65);stroke-width:0.68px;"/>
            </g>
            <g transform="matrix(0.944227,-0.329296,-0.329296,-0.944227,340.789,85.8809)">
                <path d="M-0.114,0.675L3.985,0.675" style="fill:none;fill-rule:nonzero;stroke:rgb(94,64,65);stroke-width:0.68px;"/>
            </g>
            <g transform="matrix(0.312242,0.950003,0.950003,-0.312242,348.028,89.8264)">
                <path d="M-2.409,-3.327L4.596,-3.327" style="fill:none;fill-rule:nonzero;stroke:rgb(94,64,65);stroke-width:0.68px;"/>
            </g>
            <g transform="matrix(1,0,0,1,348.075,96.4313)">
                <path d="M0,-2.49L-3.803,-1.14L-3.399,0" style="fill:none;fill-rule:nonzero;stroke:rgb(94,64,65);stroke-width:0.68px;"/>
            </g>
            <g transform="matrix(0.352662,0.935751,0.935751,-0.352662,348.744,94.1082)">
                <path d="M-0.392,-0.567L0.819,-0.567" style="fill:none;fill-rule:nonzero;stroke:rgb(94,64,65);stroke-width:0.68px;"/>
            </g>
            <g transform="matrix(0.340055,-0.940405,-0.940405,-0.340055,339.263,87.6782)">
                <path d="M-0.691,0.984L1.403,0.984" style="fill:none;fill-rule:nonzero;stroke:rgb(94,64,65);stroke-width:0.68px;"/>
            </g>
            <g transform="matrix(0.95805,0.286603,0.286603,-0.95805,346.437,82.8891)">
                <path d="M-0.054,-0.371L2.531,-0.371" style="fill:none;fill-rule:nonzero;stroke:rgb(94,64,65);stroke-width:0.68px;"/>
            </g>
            <g transform="matrix(1,0,0,1,337.585,85.8981)">
                <path d="M0,0.55C0,0.55 2.902,3.904 6.53,2.679C10.157,1.455 10.188,-3.354 10.188,-3.354" style="fill:none;fill-rule:nonzero;stroke:rgb(94,64,65);stroke-width:0.68px;"/>
            </g>
            <g transform="matrix(-0.661233,0.750181,0.750181,0.661233,343.828,91.6539)">
                <path d="M1.523,-4.116C1.523,-4.116 0.959,-2.523 0.571,-2.27C0.183,-2.018 1.523,0.392 1.523,0.392C1.523,0.392 2.077,0.135 2.467,-0.157C2.86,-0.448 2.585,-2.207 2.585,-2.207" style="fill:none;fill-rule:nonzero;stroke:rgb(94,64,65);stroke-width:0.68px;"/>
            </g>
            <g transform="matrix(1,0,0,1,348.15,91.1967)">
                <path d="M0,-3.687C0,-3.687 -0.227,-3.178 -0.555,-2.829C-0.884,-2.479 -1.352,-1.968 -1.352,-1.968L-0.886,-0.022L0.269,0C0.269,0 0.786,-0.027 0.836,-0.338C0.886,-0.65 0.642,-1.88 0.642,-1.88" style="fill:none;fill-rule:nonzero;stroke:rgb(94,64,65);stroke-width:0.68px;"/>
            </g>
            <g transform="matrix(-0.941974,0.335685,0.335685,0.941974,341.749,86.6674)">
                <ellipse cx="0.049" cy="-0.139" rx="0.142" ry="0.146" style="fill:none;stroke:rgb(94,64,65);stroke-width:0.68px;"/>
            </g>
            <g transform="matrix(-0.941974,0.335685,0.335685,0.941974,344.651,85.7329)">
                <ellipse cx="0.049" cy="-0.138" rx="0.142" ry="0.146" style="fill:none;stroke:rgb(94,64,65);stroke-width:0.68px;"/>
            </g>
            <g transform="matrix(1,0,0,1,364.851,96.7854)">
                <path d="M0,0.569C0,0.569 2,2.49 4.291,1.66C6.582,0.83 9.021,-1.921 9.021,-1.921" style="fill:none;fill-rule:nonzero;stroke:rgb(94,64,65);stroke-width:0.68px;"/>
            </g>
            <g transform="matrix(0.154577,0.987981,0.987981,-0.154577,372.804,98.844)">
                <path d="M-2.962,-3.461L4.045,-3.461" style="fill:none;fill-rule:nonzero;stroke:rgb(94,64,65);stroke-width:0.68px;"/>
            </g>
            <g transform="matrix(0.39038,-0.920654,-0.920654,-0.39038,369.952,106.361)">
                <path d="M0.807,3.256L1.865,3.256L3.285,1.433L4.57,-0.4L4.521,-1.388" style="fill:none;fill-rule:nonzero;stroke:rgb(94,64,65);stroke-width:0.68px;"/>
            </g>
            <g transform="matrix(1,0,0,1,373.712,100.331)">
                <path d="M0,-2.577L-2.067,-1.188L-2.01,0L1.25,-0.327L1.327,-1.393L0.84,-1.492" style="fill:none;fill-rule:nonzero;stroke:rgb(94,64,65);stroke-width:0.68px;"/>
            </g>
            <g transform="matrix(1,0,0,1,363.31,100.646)">
                <path d="M0,0.798L0.059,1.878L3.855,1.084L3.9,-1.027L2.198,-0.549L0.771,-1.08" style="fill:none;fill-rule:nonzero;stroke:rgb(94,64,65);stroke-width:0.68px;"/>
            </g>
            <g transform="matrix(-0.942202,0.335045,0.335045,0.942202,369.146,95.9621)">
                <circle cx="0.28" cy="-0.787" r="0.835" style="fill:none;stroke:rgb(94,64,65);stroke-width:0.68px;"/>
            </g>
            <g transform="matrix(-0.942391,0.334513,0.334513,0.942391,356.133,119.94)">
                <circle cx="0.279" cy="-0.788" r="0.835" style="fill:none;stroke:rgb(94,64,65);stroke-width:0.68px;"/>
            </g>
            <g transform="matrix(0.334296,0.942468,0.942468,-0.334296,360.509,121.377)">
                <path d="M-2.771,-3.923L5.554,-3.923" style="fill:none;fill-rule:nonzero;stroke:rgb(94,64,65);stroke-width:0.68px;"/>
            </g>
            <g transform="matrix(1,0,0,1,357.438,127.851)">
                <path d="M0,1.044L1.23,0.071L2.453,0" style="fill:none;fill-rule:nonzero;stroke:rgb(94,64,65);stroke-width:0.68px;"/>
            </g>
            <g transform="matrix(-0.898608,0.438751,0.438751,0.898608,358.462,126.784)">
                <path d="M-2.339,-0.541L0.125,-0.541" style="fill:none;fill-rule:nonzero;stroke:rgb(94,64,65);stroke-width:0.68px;"/>
            </g>
            <g transform="matrix(1,0,0,1,358.31,124.35)">
                <path d="M0,-4.77C0,-4.77 0.444,-4.591 -0.326,-3.862C-1.096,-3.132 -3.842,-1.983 -3.842,-1.983C-3.842,-1.983 -4.683,-1.682 -4.534,-1.347C-4.386,-1.013 -3.906,-0.064 -3.298,-0.033C-2.688,0 -1.033,-0.35 -1.033,-0.35" style="fill:none;fill-rule:nonzero;stroke:rgb(94,64,65);stroke-width:0.68px;"/>
            </g>
            <g transform="matrix(1,0,0,1,357.501,127.729)">
                <path d="M0,-3.097C0,-3.097 -0.054,-2.642 -0.659,-2.34C-1.265,-2.039 -2.079,-1.642 -2.079,-1.642C-2.079,-1.642 -2.786,-1.298 -2.755,-0.878C-2.723,-0.458 -2.375,-0.03 -1.967,-0.015C-1.559,0 -0.665,-0.105 -0.264,-0.323C0.138,-0.54 0.792,-0.866 0.792,-0.866" style="fill:none;fill-rule:nonzero;stroke:rgb(94,64,65);stroke-width:0.68px;"/>
            </g>
            <g transform="matrix(1,0,0,1,358.91,123.995)">
                <path d="M0,-2.447L0.177,-1.994L-0.345,-1.15L0.348,0L1.719,-0.959L2.766,-1.147L1.529,-1.876" style="fill:none;fill-rule:nonzero;stroke:rgb(94,64,65);stroke-width:0.68px;"/>
            </g>
            <g transform="matrix(-0.414544,0.910029,0.910029,0.414544,361.836,123.948)">
                <path d="M-0.935,-0.601L0.387,-0.601" style="fill:none;fill-rule:nonzero;stroke:rgb(94,64,65);stroke-width:0.68px;"/>
            </g>
            <g>
                <g>
                    <g>
                        <g>
                            <clipPath id="_clip1">
                                <rect x="394.79" y="77.062" width="141.023" height="40.579" clip-rule="nonzero"/>
                            </clipPath>
                            <g clip-path="url(#_clip1)">
                                <text x="394.79px" y="109.729px" style="font-family:'ArialMT', 'Arial', sans-serif;font-size:38.591px;fill:rgb(93,52,41);">F<tspan x="415.988px 443.631px 466.996px 490.361px 509.448px " y="109.729px 109.729px 109.729px 109.729px 109.729px ">OSS4G</tspan></text>
                            </g>
                        </g>
                    </g>
                </g>
            </g>
            <g>
                <g>
                    <g>
                        <g>
                            <text x="396.24px" y="129.328px" style="font-family:'ArialMT', 'Arial', sans-serif;font-size:18.35px;fill:rgb(93,52,41);">B<tspan x="408.023px 419.807px 429.557px 441.341px 456.171px 460.813px 470.563px 480.313px 490.063px " y="129.328px 129.328px 129.328px 129.328px 129.328px 129.328px 129.328px 129.328px 129.328px ">ELÉM,2024</tspan></text>
                        </g>
                    </g>
                </g>
            </g>
            <g transform="matrix(-0.942459,0.334322,0.334322,0.942459,372.553,133.225)">
                <ellipse cx="12.12" cy="-34.167" rx="37.244" ry="36.253" style="fill:none;stroke:rgb(94,64,65);stroke-width:0.74px;"/>
            </g>
            <g transform="matrix(1,0,0,1,514.305,122.854)">
                <path d="M0,4.131C0,4.131 1.111,7.808 6.596,7.842C12.079,7.876 17.124,3.217 17.124,3.217L14.877,-3.745C14.877,-3.745 13.49,1.395 9.091,2.154C5.162,2.832 4.349,1.349 4.349,1.349C4.349,1.349 0.798,1.515 0,4.131" style="fill:rgb(93,52,41);fill-rule:nonzero;"/>
            </g>
            <g transform="matrix(1,0,0,1,507.798,129.728)">
                <path d="M0,-13.909L-5.163,-8.484C-5.163,-8.484 -5.787,-7.668 -5.054,-6.732C-4.319,-5.798 0.793,-0.581 0.793,-0.581C0.793,-0.581 1.229,0 1.721,-0.419C2.212,-0.837 6.584,-4.372 6.584,-4.372L6.199,-6.589L0,-13.909Z" style="fill:white;fill-rule:nonzero;stroke:rgb(93,52,41);stroke-width:0.39px;stroke-linecap:round;"/>
            </g>
            <g transform="matrix(1,0,0,1,513.986,115.302)">
                <path d="M0,8.334L-5.729,1.942C-5.729,1.942 -6.394,1.235 -6.348,0.617C-6.302,0 -5.448,0.446 -5.448,0.446C-5.448,0.446 -2.946,2.151 -1.254,2.434C0.438,2.716 1.799,2.487 1.799,2.487L0.772,3.19C0.772,3.19 0.03,3.625 0.035,4.715C0.04,5.805 0,8.334 0,8.334" style="fill:rgb(93,52,41);fill-rule:nonzero;"/>
            </g>
            <g transform="matrix(1,0,0,1,513.997,120.776)">
                <path d="M0,2.364C0,2.364 -0.287,-1.115 0.104,-1.736C0.622,-2.554 1.266,-2.925 1.906,-3.075C4.334,-3.646 4.345,-3.649 5.803,-3.865L6.47,3.131C6.47,3.131 2.589,3.365 1.102,4.973C0.653,5.459 0.442,6.229 0.442,6.229C0.442,6.229 0.233,5.254 0.116,3.808L0,2.364" style="fill:white;fill-rule:nonzero;stroke:rgb(93,52,41);stroke-width:0.39px;stroke-linecap:round;"/>
            </g>
        </g>
    </g>
</svg>